<svg width="36" height="46" viewBox="0 0 36 46" fill="none" xmlns="http://www.w3.org/2000/svg">
<path fill-rule="evenodd" clip-rule="evenodd" d="M35.1 10.1144C35.1 14.9744 29.88 19.6544 27.27 24.8744C27 25.3244 26.64 26.3144 26.28 27.0344H25.74C24.57 24.6944 23.04 21.9944 21.33 19.6544C18.63 15.6044 16.92 13.4444 16.92 10.1144C16.92 4.80439 20.88 0.754395 25.92 0.754395C31.5 0.754395 35.1 5.43439 35.1 10.1144ZM33.57 10.1144C33.57 14.7944 26.1 21.9944 26.1 24.1544C24.93 22.1744 23.22 19.8344 21.69 17.4944C19.53 14.1644 18.45 12.9944 18.45 10.1144C18.45 5.79439 21.51 2.28439 25.92 2.28439C30.33 2.28439 33.57 5.79439 33.57 10.1144ZM30.51 9.93439C30.51 12.8144 27.81 14.6144 25.92 14.6144C23.04 14.6144 21.51 11.8244 21.51 9.93439C21.51 7.41439 23.4 5.43439 25.92 5.43439C28.98 5.43439 30.51 7.95439 30.51 9.93439ZM28.98 9.93439C28.98 11.8244 27.27 12.9944 25.92 12.9944C23.94 12.9944 23.04 11.2844 23.04 9.93439C23.04 7.95439 24.57 6.96439 25.92 6.96439C27.81 6.96439 28.98 8.58439 28.98 9.93439ZM15.12 12.4544C15.12 12.8144 14.04 13.6244 13.77 14.1644C13.23 15.1544 12.69 16.5044 12.06 17.6744C12.24 17.8544 12.69 17.8544 17.64 17.8544C18 18.3044 18.45 18.8444 18.63 19.2944H11.88C11.34 20.0144 10.53 24.1544 10.53 25.5044V27.2144H23.58C23.58 28.2044 25.92 29.0144 25.92 29.5544C25.92 30.1844 25.47 32.7044 25.29 35.0444H32.04C32.22 34.6844 33.75 30.1844 33.75 29.5544V28.6544H27.45C27.81 28.2044 28.17 27.6644 28.35 27.2144H33.57C33.75 27.0344 33.75 27.0344 33.75 26.6744C33.75 26.0444 33.39 24.3344 33.03 23.3444C32.76 22.5344 32.22 21.3644 32.22 21.0044C32.22 20.4644 32.76 20.0144 33.03 19.6544C34.56 22.9844 35.1 24.5144 35.1 28.0244C35.1 38.1944 27 45.7544 17.46 45.7544C11.52 45.7544 3.24 42.0644 0.81 33.5144C0.54 32.3444 0 30.1844 0 29.8244V26.0444C0.18 25.3244 0.36 24.3344 0.36 23.7044C1.35 17.3144 9 10.6544 14.94 10.2944C14.94 10.9244 15.12 11.8244 15.12 12.4544ZM10.53 17.6744H5.22C7.29 14.7944 10.53 12.8144 13.41 12.2744C11.88 13.6244 10.89 16.1444 10.53 17.6744ZM9.99 19.4744C9.36 21.9944 9.18 24.5144 9 27.0344H1.53V26.3144C1.71 24.1544 2.52 21.6344 3.87 19.4744H9.99ZM9.54 34.8644H3.06C2.07 32.7044 1.53 30.9044 1.53 28.8344H9C9 30.5444 9.18 32.5244 9.54 34.8644ZM24.3 28.8344C24.12 31.5344 23.94 33.0644 23.76 34.8644H11.34C11.07 33.2444 10.89 31.7144 10.71 28.8344H24.3ZM9.9 36.5744C10.71 38.9144 11.25 41.2544 13.41 43.5944C10.53 42.8744 5.94 40.2644 3.96 36.5744H9.9ZM23.13 36.5744C22.59 38.3744 20.7 44.2244 17.37 44.2244C13.95 44.2244 11.88 37.5644 11.88 36.5744H23.13ZM30.96 36.5744C28.8 40.2644 24.21 42.8744 21.6 43.5944C23.31 41.2544 24.21 38.9144 24.84 36.5744H30.96Z" fill="#333333"/>
</svg>
