<svg width="36" height="41" viewBox="0 0 36 41" fill="none" xmlns="http://www.w3.org/2000/svg">
<path fill-rule="evenodd" clip-rule="evenodd" d="M20.9722 0.768033C21.2355 0.768033 21.411 0.76803 21.4987 0.94353C23.9557 3.40053 26.5005 6.12078 28.9575 8.66553C29.3962 9.10428 28.9575 9.89403 29.2207 10.4205C29.3085 10.596 35.1 16.3875 35.1 16.7385V39.378C35.0122 39.4658 34.8368 40.2555 34.398 40.2555H0.61425C0.26325 39.9923 0 39.729 0 39.4658V16.6508L5.87925 10.4205V1.38228C5.87925 1.03128 6.318 0.680283 6.669 0.768033H20.9722ZM20.0947 2.43528V9.27978C20.0947 9.45528 20.4457 10.0695 20.6212 10.0695H27.5535V22.4423L22.815 27.3563H12.1095L7.371 22.4423V2.43528H20.0947ZM26.325 8.31454H21.762V3.66379L26.325 8.31454ZM16.3215 11.9123C16.5847 11.7368 17.1112 12.2633 17.1112 12.702C17.1112 12.8775 16.9357 13.4918 16.497 13.4918H9.6525C9.21375 13.1408 9.126 13.053 9.126 12.702C9.126 12.351 9.21375 11.9123 9.91575 11.9123H16.3215ZM5.70375 20.8628L1.84275 16.8263L5.70375 12.7898V20.8628ZM33.0817 16.7385L29.2207 20.8628V12.702L33.0817 16.7385ZM25.0087 16.212C25.5352 16.212 25.7107 16.7385 25.7107 16.914C25.7107 17.3528 25.272 17.7915 24.921 17.7915H9.828C9.477 17.5283 9.126 17.265 9.126 16.914C9.126 16.6508 9.38925 16.0365 9.74025 16.212H25.0087ZM33.4327 37.4475L24.4822 28.146L33.4327 18.7568V37.4475ZM10.4422 28.146L1.49175 37.3598V18.8445L10.4422 28.146ZM24.8332 20.5995C25.3597 20.5995 25.623 21.0383 25.623 21.3893C25.623 21.7403 25.272 22.0913 25.0087 22.0913H9.56475C9.126 22.0035 9.03825 21.477 9.03825 21.3015C9.03825 20.9505 9.38925 20.424 9.828 20.5995H24.8332ZM22.815 29.0235L32.2042 38.676H2.6325L12.1095 29.0235H22.815Z" fill="#333333"/>
</svg>
