<svg width="36" height="37" viewBox="0 0 36 37" fill="none" xmlns="http://www.w3.org/2000/svg">
<path fill-rule="evenodd" clip-rule="evenodd" d="M24.4902 2.03339C31.2709 4.90521 35.1 11.9252 35.1 17.27C35.1 17.4295 35.0202 18.8654 34.382 18.8654C34.1427 18.8654 33.9034 18.6261 33.6641 18.4666V16.0734C33.0259 12.0848 30.2339 6.18158 24.8891 3.62885C23.852 3.15021 22.815 2.83112 21.778 2.59181C21.2993 2.43226 20.7409 2.35249 20.2623 2.35249C20.1027 2.35249 17.3905 2.51203 17.3905 1.39522C17.3905 0.677261 18.587 0.757031 18.8264 0.757031C20.6611 0.757031 22.7352 1.31544 24.4902 2.03339ZM12.3648 14.2386C12.3648 16.0734 9.81205 16.3925 9.81205 17.4295C9.81205 18.0677 16.513 24.9282 18.1084 26.2045C18.4275 26.5236 18.587 26.6034 18.7466 26.6034C19.7039 26.6034 19.7836 24.0507 21.778 24.0507C24.8093 24.0507 29.2766 28.6775 29.2766 31.4695C29.2766 35.1391 23.533 36.6548 21.8577 36.6548C13.8805 36.6548 2.71227 27.0023 0.478636 17.7486C0.319091 17.0307 0 15.6745 0 15.4352V12.8825C0.0797727 11.4466 2.15386 6.73999 4.94591 6.73999C7.81773 6.73999 12.3648 11.4466 12.3648 14.2386ZM29.2766 17.3498C29.2766 17.8284 29.1968 18.8654 28.5586 18.8654C28.3991 18.8654 27.8407 18.5463 27.8407 18.307C27.6811 17.5891 27.6811 16.7116 27.6014 16.0734C27.6014 15.5948 27.362 15.1959 27.2823 14.797C26.7239 11.8454 22.1768 8.25567 19.9432 8.25567H18.5073C17.9489 8.01635 17.3905 8.01635 17.3905 7.37817C17.3905 6.66022 18.4275 6.73999 18.7466 6.73999C24.1711 6.73999 29.2766 12.3241 29.2766 17.3498ZM10.53 13.9195C10.53 14.0791 10.53 14.3184 10.4502 14.4779C10.1311 14.797 9.6525 15.0364 9.33341 15.3554C8.29636 16.1532 8.05704 16.7914 8.05704 17.3498C8.05704 18.7857 10.3705 20.5407 11.4873 21.7373C13.4018 23.7316 15.3961 25.9652 17.55 27.8798C17.8691 28.1988 18.587 28.4382 18.7466 28.4382C19.7039 28.4382 20.9005 26.6832 21.4589 25.8854C23.4532 25.0877 27.6811 29.3954 27.6811 31.3898C27.6811 31.9482 27.2823 32.6661 26.6441 33.1448C26.0059 33.4638 25.2082 34.1818 24.8093 34.3413C23.852 34.6604 22.4959 34.9795 21.6184 34.9795C14.6782 34.9795 4.06841 26.045 2.23364 17.9879C2.07409 17.1902 1.67523 15.9139 1.67523 15.7543V12.6432C1.59545 12.005 2.95159 8.41521 4.86614 8.41521C6.94023 8.41521 10.53 11.6859 10.53 13.9195ZM23.533 17.7486C23.533 18.1475 22.8948 18.8654 22.7352 18.8654C22.4959 18.8654 22.1768 18.6261 22.097 18.3868C21.6982 17.27 21.8577 15.7543 20.4218 14.6375C20.1027 14.3982 19.7039 14.2386 19.3848 14.2386C19.1455 14.1588 17.3905 13.9993 17.3905 13.2016C17.3905 12.5634 18.268 12.6432 18.4275 12.6432C20.9005 12.6432 23.533 15.3554 23.533 17.7486Z" fill="#333333"/>
</svg>
