<svg width="25" height="19" viewBox="0 0 25 19" fill="none" xmlns="http://www.w3.org/2000/svg">
<path d="M22.2815 0.754395H2.14704C0.960778 0.754395 0 1.76749 0 3.00439V16.5044C0 17.7486 0.967839 18.7544 2.14704 18.7544H22.2815C23.4579 18.7544 24.4286 17.7529 24.4286 16.5044V3.00439C24.4286 1.76969 23.4716 0.754395 22.2815 0.754395ZM21.9808 2.25439C21.5422 2.71164 13.9931 10.581 13.7325 10.8527C13.3269 11.2777 12.7878 11.5117 12.2143 11.5117C11.6408 11.5117 11.1016 11.2777 10.6948 10.8513C10.5195 10.6686 3.05371 2.88609 2.44772 2.25439H21.9808ZM1.43136 16.1991V3.31064L7.61666 9.75839L1.43136 16.1991ZM2.44863 17.2544L8.63149 10.8162L9.68397 11.9134C10.3599 12.6217 11.2585 13.0117 12.2143 13.0117C13.1701 13.0117 14.0687 12.6217 14.7433 11.9148L15.7971 10.8162L21.9799 17.2544H2.44863ZM22.9972 16.1991L16.8119 9.75839L22.9972 3.31064V16.1991Z" fill="#6FB553"/>
</svg>
