<svg width="134" height="71" viewBox="0 0 134 71" fill="none" xmlns="http://www.w3.org/2000/svg">
<path d="M103.608 0.139697C100.1 8.56217 101.124 19.5322 95.4397 30.5567C92.4206 36.4225 85.9292 40.33 79.3291 40.6383C76.437 40.7743 73.5177 40.1306 70.9066 38.8613C71.1151 38.4987 71.3146 38.1179 71.4868 37.728C73.1913 34.0381 73.5539 29.5775 72.5113 25.3346C79.9818 17.0934 86.9809 12.2884 86.9809 12.2884C86.9809 12.2884 79.7008 14.8813 71.7316 22.8232C70.3808 19.2693 68.0598 15.933 64.9683 13.0953C66.1559 11.2367 67.5974 9.54131 69.2112 8.03633C76.5458 1.19137 86.0743 -0.549331 103.608 0.139697Z" fill="#333333"/>
<path d="M30 6.85782C33.5267 15.099 32.6201 25.8786 38.2955 36.6583C41.3236 42.3972 47.7334 46.1687 54.2157 46.4135C58.6582 46.5767 63.155 44.8813 66.4188 41.9076C68.6128 44.4461 69.7914 48.0001 69.7914 48.0001L71.8404 46.4407C70.6436 44.2739 69.3472 42.2068 67.9872 40.2576C67.7697 39.9433 67.549 39.632 67.3254 39.3238C58.087 26.4589 46.446 18.6348 46.446 18.6348C46.446 18.6348 59.1296 23.0319 69.3562 38.2993C69.592 37.8943 69.8095 37.4773 70.009 37.0482C71.7678 33.2313 71.8766 28.7526 70.6618 24.7272C69.4469 20.7109 66.9628 17.1298 63.8621 14.2921C56.5911 7.63751 47.2167 6.02373 30 6.85782Z" fill="#6FB553"/>
<path d="M1.76 70.6667V56.6667H7.8C8.68 56.6667 9.46 56.8667 10.14 57.2667C10.8333 57.6667 11.38 58.2134 11.78 58.9067C12.1933 59.6001 12.4 60.3801 12.4 61.2467C12.4 62.1534 12.1933 62.9667 11.78 63.6867C11.38 64.3934 10.8333 64.9534 10.14 65.3667C9.46 65.7801 8.68 65.9867 7.8 65.9867H5.16V70.6667H1.76ZM5.1 63.0067H7.32C7.61333 63.0067 7.88 62.9334 8.12 62.7867C8.36 62.6401 8.55333 62.4401 8.7 62.1867C8.84667 61.9334 8.92 61.6401 8.92 61.3067C8.92 60.9601 8.84667 60.6667 8.7 60.4267C8.55333 60.1867 8.36 60.0001 8.12 59.8667C7.88 59.7334 7.61333 59.6667 7.32 59.6667H5.1V63.0067ZM18.1845 70.8867C17.3979 70.8867 16.7245 70.7201 16.1645 70.3867C15.6179 70.0401 15.1912 69.5467 14.8845 68.9067C14.5912 68.2667 14.4445 67.5001 14.4445 66.6067V60.0467H17.6645V66.1667C17.6645 66.5934 17.7312 66.9601 17.8645 67.2667C17.9979 67.5734 18.1979 67.8134 18.4645 67.9867C18.7312 68.1467 19.0512 68.2267 19.4245 68.2267C19.7045 68.2267 19.9579 68.1801 20.1845 68.0867C20.4245 67.9934 20.6245 67.8667 20.7845 67.7067C20.9579 67.5334 21.0912 67.3401 21.1845 67.1267C21.2779 66.9001 21.3245 66.6534 21.3245 66.3867V60.0467H24.5445V70.6667H21.5245L21.3845 68.4867L21.9845 68.2467C21.8245 68.7534 21.5579 69.2067 21.1845 69.6067C20.8112 69.9934 20.3645 70.3067 19.8445 70.5467C19.3245 70.7734 18.7712 70.8867 18.1845 70.8867ZM27.3966 70.6667V60.0467H30.4366L30.5766 63.5067L29.9766 62.8467C30.1366 62.2734 30.3966 61.7601 30.7566 61.3067C31.1299 60.8534 31.5632 60.4934 32.0566 60.2267C32.5499 59.9601 33.0766 59.8267 33.6366 59.8267C33.8766 59.8267 34.0966 59.8467 34.2966 59.8867C34.5099 59.9267 34.7032 59.9734 34.8766 60.0267L33.9966 63.5667C33.8499 63.4734 33.6499 63.4001 33.3966 63.3467C33.1566 63.2801 32.9032 63.2467 32.6366 63.2467C32.3432 63.2467 32.0699 63.3001 31.8166 63.4067C31.5632 63.5001 31.3499 63.6401 31.1766 63.8267C31.0032 64.0134 30.8632 64.2334 30.7566 64.4867C30.6632 64.7401 30.6166 65.0267 30.6166 65.3467V70.6667H27.3966ZM41.1089 70.8667C39.9356 70.8667 38.9156 70.6334 38.0489 70.1667C37.1822 69.6867 36.5089 69.0401 36.0289 68.2267C35.5489 67.4001 35.3089 66.4601 35.3089 65.4067C35.3089 64.5934 35.4422 63.8467 35.7089 63.1667C35.9756 62.4867 36.3489 61.9001 36.8289 61.4067C37.3089 60.9001 37.8756 60.5134 38.5289 60.2467C39.1956 59.9667 39.9222 59.8267 40.7089 59.8267C41.4556 59.8267 42.1356 59.9601 42.7489 60.2267C43.3756 60.4934 43.9156 60.8667 44.3689 61.3467C44.8222 61.8267 45.1689 62.3934 45.4089 63.0467C45.6489 63.7001 45.7556 64.4134 45.7289 65.1867L45.7089 66.0467H37.2489L36.7889 64.2467H43.1089L42.7689 64.6267V64.2267C42.7422 63.8934 42.6356 63.6001 42.4489 63.3467C42.2756 63.0801 42.0422 62.8734 41.7489 62.7267C41.4556 62.5801 41.1222 62.5067 40.7489 62.5067C40.2289 62.5067 39.7822 62.6134 39.4089 62.8267C39.0489 63.0267 38.7756 63.3267 38.5889 63.7267C38.4022 64.1134 38.3089 64.5934 38.3089 65.1667C38.3089 65.7534 38.4289 66.2667 38.6689 66.7067C38.9222 67.1334 39.2822 67.4667 39.7489 67.7067C40.2289 67.9467 40.7956 68.0667 41.4489 68.0667C41.9022 68.0667 42.3022 68.0001 42.6489 67.8667C43.0089 67.7334 43.3956 67.5067 43.8089 67.1867L45.3089 69.3067C44.8956 69.6667 44.4556 69.9601 43.9889 70.1867C43.5222 70.4134 43.0422 70.5801 42.5489 70.6867C42.0689 70.8067 41.5889 70.8667 41.1089 70.8667Z" fill="#333333"/>
<path d="M63.1939 70.6667V56.6667H66.5939V70.6667H63.1939ZM54.5139 70.6667V56.6667H57.9139V70.6667H54.5139ZM55.8339 65.2067L55.8539 62.1667H64.9939V65.2067H55.8339ZM73.6798 70.8467C72.7865 70.8467 71.9865 70.6134 71.2798 70.1467C70.5865 69.6667 70.0332 69.0134 69.6198 68.1867C69.2065 67.3467 68.9998 66.4001 68.9998 65.3467C68.9998 64.2667 69.2065 63.3134 69.6198 62.4867C70.0332 61.6601 70.5998 61.0134 71.3198 60.5467C72.0398 60.0667 72.8598 59.8267 73.7798 59.8267C74.2865 59.8267 74.7465 59.9001 75.1598 60.0467C75.5865 60.1934 75.9598 60.4001 76.2798 60.6667C76.5998 60.9201 76.8732 61.2201 77.0998 61.5667C77.3265 61.9001 77.4932 62.2601 77.5998 62.6467L76.9398 62.5667V60.0467H80.1198V70.6667H76.8798V68.1067L77.5998 68.0867C77.4932 68.4601 77.3198 68.8134 77.0798 69.1467C76.8398 69.4801 76.5465 69.7734 76.1998 70.0267C75.8532 70.2801 75.4665 70.4801 75.0398 70.6267C74.6132 70.7734 74.1598 70.8467 73.6798 70.8467ZM74.5598 68.1467C75.0532 68.1467 75.4798 68.0334 75.8398 67.8067C76.1998 67.5801 76.4798 67.2601 76.6798 66.8467C76.8798 66.4201 76.9798 65.9201 76.9798 65.3467C76.9798 64.7734 76.8798 64.2801 76.6798 63.8667C76.4798 63.4401 76.1998 63.1134 75.8398 62.8867C75.4798 62.6467 75.0532 62.5267 74.5598 62.5267C74.0798 62.5267 73.6598 62.6467 73.2998 62.8867C72.9532 63.1134 72.6798 63.4401 72.4798 63.8667C72.2798 64.2801 72.1798 64.7734 72.1798 65.3467C72.1798 65.9201 72.2798 66.4201 72.4798 66.8467C72.6798 67.2601 72.9532 67.5801 73.2998 67.8067C73.6598 68.0334 74.0798 68.1467 74.5598 68.1467ZM82.9434 70.6667V60.0467H85.9834L86.1234 63.5067L85.5234 62.8467C85.6834 62.2734 85.9434 61.7601 86.3034 61.3067C86.6768 60.8534 87.1101 60.4934 87.6034 60.2267C88.0968 59.9601 88.6234 59.8267 89.1834 59.8267C89.4234 59.8267 89.6434 59.8467 89.8434 59.8867C90.0568 59.9267 90.2501 59.9734 90.4234 60.0267L89.5434 63.5667C89.3968 63.4734 89.1968 63.4001 88.9434 63.3467C88.7034 63.2801 88.4501 63.2467 88.1834 63.2467C87.8901 63.2467 87.6168 63.3001 87.3634 63.4067C87.1101 63.5001 86.8968 63.6401 86.7234 63.8267C86.5501 64.0134 86.4101 64.2334 86.3034 64.4867C86.2101 64.7401 86.1634 65.0267 86.1634 65.3467V70.6667H82.9434ZM96.3011 70.6667L91.8611 60.0467H95.4011L98.0411 67.9867L97.2611 68.0667L99.9811 60.0467H103.481L98.8211 70.6667H96.3011ZM109.918 70.8667C108.744 70.8667 107.724 70.6334 106.858 70.1667C105.991 69.6867 105.318 69.0401 104.838 68.2267C104.358 67.4001 104.118 66.4601 104.118 65.4067C104.118 64.5934 104.251 63.8467 104.518 63.1667C104.784 62.4867 105.158 61.9001 105.638 61.4067C106.118 60.9001 106.684 60.5134 107.338 60.2467C108.004 59.9667 108.731 59.8267 109.518 59.8267C110.264 59.8267 110.944 59.9601 111.558 60.2267C112.184 60.4934 112.724 60.8667 113.178 61.3467C113.631 61.8267 113.978 62.3934 114.218 63.0467C114.458 63.7001 114.564 64.4134 114.538 65.1867L114.518 66.0467H106.058L105.598 64.2467H111.918L111.578 64.6267V64.2267C111.551 63.8934 111.444 63.6001 111.258 63.3467C111.084 63.0801 110.851 62.8734 110.558 62.7267C110.264 62.5801 109.931 62.5067 109.558 62.5067C109.038 62.5067 108.591 62.6134 108.218 62.8267C107.858 63.0267 107.584 63.3267 107.398 63.7267C107.211 64.1134 107.118 64.5934 107.118 65.1667C107.118 65.7534 107.238 66.2667 107.478 66.7067C107.731 67.1334 108.091 67.4667 108.558 67.7067C109.038 67.9467 109.604 68.0667 110.258 68.0667C110.711 68.0667 111.111 68.0001 111.458 67.8667C111.818 67.7334 112.204 67.5067 112.618 67.1867L114.118 69.3067C113.704 69.6667 113.264 69.9601 112.798 70.1867C112.331 70.4134 111.851 70.5801 111.358 70.6867C110.878 70.8067 110.398 70.8667 109.918 70.8667ZM120.156 70.8667C119.116 70.8667 118.196 70.7001 117.396 70.3667C116.61 70.0334 115.983 69.5867 115.516 69.0267L117.456 67.3467C117.87 67.7601 118.336 68.0667 118.856 68.2667C119.376 68.4534 119.87 68.5467 120.336 68.5467C120.523 68.5467 120.69 68.5267 120.836 68.4867C120.983 68.4467 121.103 68.3934 121.196 68.3267C121.303 68.2467 121.383 68.1601 121.436 68.0667C121.49 67.9601 121.516 67.8401 121.516 67.7067C121.516 67.4401 121.396 67.2334 121.156 67.0867C121.036 67.0201 120.836 66.9401 120.556 66.8467C120.276 66.7534 119.916 66.6467 119.476 66.5267C118.85 66.3667 118.303 66.1801 117.836 65.9667C117.383 65.7401 117.01 65.4801 116.716 65.1867C116.45 64.9067 116.243 64.6001 116.096 64.2667C115.95 63.9201 115.876 63.5334 115.876 63.1067C115.876 62.6134 115.99 62.1667 116.216 61.7667C116.456 61.3667 116.77 61.0201 117.156 60.7267C117.556 60.4334 118.01 60.2134 118.516 60.0667C119.036 59.9067 119.57 59.8267 120.116 59.8267C120.703 59.8267 121.263 59.8934 121.796 60.0267C122.33 60.1601 122.823 60.3467 123.276 60.5867C123.743 60.8267 124.156 61.1134 124.516 61.4467L122.836 63.3267C122.596 63.1001 122.323 62.9001 122.016 62.7267C121.723 62.5401 121.416 62.3934 121.096 62.2867C120.776 62.1801 120.483 62.1267 120.216 62.1267C120.016 62.1267 119.836 62.1467 119.676 62.1867C119.53 62.2134 119.403 62.2667 119.296 62.3467C119.19 62.4134 119.11 62.5001 119.056 62.6067C119.003 62.7001 118.976 62.8134 118.976 62.9467C118.976 63.0801 119.01 63.2067 119.076 63.3267C119.156 63.4467 119.263 63.5467 119.396 63.6267C119.53 63.7067 119.743 63.8001 120.036 63.9067C120.33 64.0001 120.73 64.1201 121.236 64.2667C121.863 64.4401 122.403 64.6334 122.856 64.8467C123.31 65.0601 123.67 65.3134 123.936 65.6067C124.15 65.8334 124.31 66.1001 124.416 66.4067C124.523 66.7001 124.576 67.0201 124.576 67.3667C124.576 68.0467 124.383 68.6534 123.996 69.1867C123.623 69.7067 123.103 70.1201 122.436 70.4267C121.77 70.7201 121.01 70.8667 120.156 70.8667ZM127.359 70.6667V57.3667H130.559V70.6667H127.359ZM125.479 62.8467V60.0467H132.619V62.8467H125.479Z" fill="#6FB553"/>
</svg>
