<svg width="35" height="36" viewBox="0 0 35 36" fill="none" xmlns="http://www.w3.org/2000/svg">
<rect x="0.5" y="1.25439" width="34" height="34" rx="17" stroke="#6FB553"/>
<path fill-rule="evenodd" clip-rule="evenodd" d="M10.2392 19.086C11.8074 21.8802 14.7813 23.616 17.999 23.616C21.2187 23.616 24.1926 21.8802 25.7608 19.086C25.8816 18.869 25.8816 18.6396 25.7608 18.4228C24.1926 15.6286 21.2187 13.893 17.999 13.893C14.7813 13.893 11.8074 15.6286 10.2392 18.4228C10.1163 18.6396 10.1163 18.869 10.2392 19.086ZM9.23742 17.8688C11.0076 14.714 14.3648 12.7544 17.999 12.7544C21.6352 12.7544 24.9924 14.714 26.7626 17.8688C27.0791 18.4317 27.0791 19.0771 26.7626 19.6395C24.9924 22.7944 21.6352 24.7544 17.999 24.7544C14.3648 24.7544 11.0076 22.7944 9.23742 19.6395C8.92086 19.0771 8.92086 18.4317 9.23742 17.8688ZM17.999 21.09C16.7015 21.09 15.6456 20.0423 15.6456 18.7543C15.6456 17.4663 16.7015 16.4186 17.999 16.4186C19.2985 16.4186 20.3544 17.4663 20.3544 18.7543C20.3544 20.0423 19.2985 21.09 17.999 21.09ZM17.999 15.28C19.9316 15.28 21.5019 16.8387 21.5019 18.7543C21.5019 20.6704 19.9316 22.2284 17.999 22.2284C16.0684 22.2284 14.4981 20.6703 14.4981 18.7543C14.4981 16.8387 16.0684 15.28 17.999 15.28Z" fill="#6FB553"/>
</svg>
