<svg width="35" height="36" viewBox="0 0 35 36" fill="none" xmlns="http://www.w3.org/2000/svg">
<rect x="0.5" y="1.25439" width="34" height="34" rx="17" stroke="#6FB553"/>
<path d="M18 25.7544C18.2278 25.7544 18.4474 25.6674 18.6185 25.5095C19.2649 24.9139 19.8881 24.3542 20.4379 23.8605L20.4407 23.858C22.0526 22.4105 23.4446 21.1604 24.4131 19.9291C25.4957 18.5524 26 17.2472 26 15.8213C26 14.436 25.5492 13.1579 24.7307 12.2223C23.9025 11.2757 22.766 10.7544 21.5303 10.7544C20.6067 10.7544 19.7609 11.0621 19.0164 11.6688C18.6406 11.9751 18.3 12.3499 18 12.7872C17.6998 12.3499 17.3594 11.9751 16.9835 11.6688C16.239 11.0621 15.3932 10.7544 14.4696 10.7544C13.234 10.7544 12.0974 11.2757 11.2692 12.2223C10.4507 13.1579 10 14.436 10 15.8213C10 17.2472 10.5042 18.5524 11.5868 19.9289C12.5553 21.1604 13.9471 22.4104 15.5588 23.8577C16.1096 24.3522 16.7338 24.9128 17.3816 25.5097C17.5526 25.6674 17.7723 25.7544 18 25.7544ZM21.5303 11.742C22.5011 11.742 23.3929 12.1503 24.0417 12.8917C24.7002 13.6444 25.0629 14.6847 25.0629 15.8213C25.0629 17.0206 24.6399 18.0931 23.6915 19.2989C22.7749 20.4644 21.4115 21.6887 19.8329 23.1064L19.83 23.109C19.2781 23.6046 18.6525 24.1664 18.0013 24.7664C17.3463 24.1653 16.7197 23.6025 16.1667 23.1061C14.5883 21.6885 13.225 20.4644 12.3083 19.2989C11.3601 18.0931 10.9371 17.0206 10.9371 15.8213C10.9371 14.6847 11.2998 13.6444 11.9583 12.8917C12.6069 12.1503 13.4989 11.742 14.4696 11.742C15.1808 11.742 15.8337 11.9803 16.4103 12.45C16.9241 12.8688 17.282 13.3983 17.4918 13.7687C17.5997 13.9593 17.7897 14.073 18 14.073C18.2103 14.073 18.4003 13.9593 18.5082 13.7687C18.7179 13.3983 19.0758 12.8688 19.5897 12.45C20.1663 11.9803 20.8192 11.742 21.5303 11.742Z" fill="#6FB553"/>
</svg>
