<svg width="19" height="18" viewBox="0 0 19 18" fill="none" xmlns="http://www.w3.org/2000/svg">
<path d="M15.0928 12.9054C15.8694 12.8972 16.5485 12.3727 16.7477 11.6205L18.6628 4.48882C18.7237 4.25706 18.5896 4.02123 18.3578 3.95618C18.3212 3.94805 18.2846 3.93991 18.248 3.93991H3.84233L2.86244 0.321211C2.81364 0.134177 2.64287 0 2.44771 0H0V0.866049H2.10617L3.05353 4.40343C3.04947 4.43189 3.04947 4.46036 3.05353 4.48882L5.0052 11.6449C5.01739 11.7018 5.03772 11.7628 5.05805 11.8197L5.71674 14.2187C5.08245 14.5561 4.65146 15.2229 4.65146 15.9914C4.65146 17.1014 5.55003 18 6.66004 18C7.77005 18 8.66862 17.1014 8.66862 15.9914C8.66862 15.6458 8.57917 15.3165 8.42467 15.0318C8.38807 14.9668 8.35148 14.9017 8.30675 14.8367H13.4177C13.19 15.162 13.0517 15.5604 13.0517 15.9914C13.0517 17.1014 13.9503 18 15.0603 18C16.1703 18 17.0689 17.1014 17.0689 15.9914C17.0689 15.4669 16.8697 14.9912 16.5403 14.6334C16.1866 14.2309 15.6661 13.9747 15.0847 13.9706H6.58279L6.27784 12.8525C6.40795 12.885 6.54213 12.9054 6.6763 12.9054H15.0928ZM15.0644 14.8367C15.7027 14.8367 16.2191 15.3531 16.2191 15.9914C16.2191 16.6298 15.7027 17.1461 15.0644 17.1461C14.426 17.1461 13.9096 16.6298 13.9096 15.9914C13.9096 15.3531 14.426 14.8367 15.0644 14.8367ZM6.66004 14.8367C7.2984 14.8367 7.81071 15.3571 7.81071 15.9914C7.81071 16.6298 7.29433 17.1461 6.65597 17.1461C6.01762 17.1461 5.50531 16.6298 5.50531 15.9914C5.50531 15.3531 6.02169 14.8367 6.66004 14.8367ZM5.88751 11.4904L4.91574 7.93675L4.0497 4.8141H17.6666L15.906 11.4253C15.8084 11.8035 15.471 12.0678 15.0806 12.0759H6.66817C6.31443 12.0556 6.00542 11.8279 5.88751 11.4904Z" fill="white"/>
</svg>
