<svg width="187" height="271" viewBox="0 0 187 271" fill="none" xmlns="http://www.w3.org/2000/svg">
<g opacity="0.5">
<path d="M116.516 160.864C118.993 159.869 121.578 159.165 124.217 158.766C127.152 158.672 130.09 158.832 132.997 159.246C133.296 159.246 133.326 158.946 132.997 158.916C130.409 158.308 127.771 157.937 125.116 157.807C122.514 158.024 119.948 158.557 117.475 159.395C113.58 160.594 109.834 162.871 105.759 161.703C103.691 156.729 102.283 151.515 100.215 146.541C99.8856 145.702 99.0166 146.031 98.4472 146.541H98.0577C96.7668 147.293 95.725 148.408 95.0612 149.747C93.8758 151.456 92.8715 153.283 92.0647 155.2C91.3371 156.884 90.6971 158.604 90.1471 160.354C89.0008 163.045 88.0005 165.796 87.1506 168.595C84.7834 176.146 82.1165 184.057 84.1541 191.997C86.1917 199.938 93.7128 200.058 99.6459 203.114C101.142 203.715 102.418 204.761 103.302 206.111C104.021 207.489 103.032 208.028 102.163 208.897C100.575 210.545 101.054 211.894 102.672 213.422C103.811 214.411 105.159 215.19 106.178 216.269C107.197 217.347 108.096 220.134 106.748 221.243C105.938 221.872 104.021 221.243 103.122 221.243C101.917 221.136 100.704 221.321 99.5859 221.782C98.9267 222.082 98.2076 222.861 98.5372 223.64C99.3404 225.439 100.68 226.946 102.373 227.955C104.38 229.244 106.148 229.693 107.017 232.09C107.197 232.57 108.066 234.427 107.736 234.757C107.167 234.661 106.606 234.521 106.058 234.338C105.393 234.126 104.678 234.13 104.015 234.351C103.353 234.572 102.778 234.997 102.373 235.566C100.695 238.113 103.691 241.259 104.98 243.297C105.071 243.451 105.152 243.611 105.219 243.776C104.607 243.45 103.914 243.307 103.223 243.366C102.532 243.424 101.872 243.681 101.324 244.106C100.649 244.593 100.105 245.239 99.739 245.986C99.3731 246.734 99.197 247.559 99.2263 248.391C99.2263 250.249 100.515 251.867 100.815 253.695C100.828 253.794 100.828 253.895 100.815 253.994C100.655 254.009 100.495 254.009 100.335 253.994C99.6235 253.747 98.8694 253.645 98.1176 253.695C97.5496 253.776 97.0136 254.007 96.5656 254.366C96.1176 254.724 95.7741 255.196 95.5707 255.732C95.2578 256.605 95.165 257.542 95.3009 258.459C95.5407 259.118 95.0912 258.669 95.1512 258.459C95.2111 258.249 95.1512 258.459 94.402 257.95C93.6887 257.113 93.0566 256.21 92.5142 255.253C91.5853 254.054 90.147 253.215 88.7386 254.264C88.3162 254.631 88.0049 255.108 87.8397 255.643L87.6 256.032C87.3003 255.822 86.5812 255.433 86.4913 255.343C85.9457 254.855 85.5332 254.236 85.2926 253.545C84.9623 252.512 84.9623 251.402 85.2926 250.369C85.6522 248.811 86.0718 247.073 84.6635 245.874C82.5959 244.136 80.7979 245.874 80.0488 248.032C78.8502 246.863 79.1199 244.196 78.191 242.758C77.6816 241.979 76.7827 241.439 76.3931 240.63C75.674 239.192 76.9924 236.675 77.292 235.147C77.8808 231.884 77.9918 228.553 77.6216 225.258C77.637 222.531 77 219.839 75.7638 217.407C75.4184 216.973 74.9837 216.618 74.4891 216.367C73.9944 216.116 73.4515 215.974 72.8972 215.951C72.3428 215.929 71.79 216.026 71.2764 216.235C70.7628 216.445 70.3006 216.763 69.9208 217.168C68.37 219.156 67.5738 221.63 67.6734 224.15C66.6934 231.209 68.1069 238.394 71.6886 244.556C72.3479 245.544 76.7227 250.998 74.6851 251.507C73.9959 251.687 73.0071 251.118 72.258 251.238C71.8867 251.29 71.53 251.418 71.2104 251.613C70.8907 251.809 70.6149 252.069 70.4002 252.376C69.2315 254.114 70.7896 256.482 71.2391 258.22C71.4488 258.999 71.6886 259.748 71.2391 260.407C70.7896 261.066 70.1306 260.677 69.3515 260.407C68.5723 260.049 67.7214 259.875 66.8643 259.898C66.6406 259.958 66.433 260.067 66.2568 260.217C66.0805 260.367 65.94 260.555 65.8455 260.767C65.4259 261.486 65.3061 264.063 64.1374 263.104C62.9688 262.145 63.8678 260.107 62.1298 259.658C61.2478 259.612 60.3809 259.901 59.7027 260.467C59.433 260.707 59.2533 261.006 58.9836 261.216C58.7139 261.426 58.7739 261.725 58.684 261.755C58.5941 261.785 58.1446 261.036 58.0547 260.557C57.6052 257.92 59.1334 255.223 58.7738 252.526C58.7613 251.933 58.6022 251.352 58.3105 250.835C58.0189 250.318 57.6038 249.881 57.1024 249.564C56.6009 249.246 56.0287 249.058 55.4368 249.015C54.8448 248.973 54.2514 249.078 53.7097 249.32C52.6437 249.946 51.7406 250.816 51.0741 251.857C50.4076 252.898 49.9965 254.083 49.8743 255.313C49.8486 257.555 50.1102 259.79 50.6533 261.965C50.8473 263.133 50.9376 264.317 50.923 265.501C50.9243 265.986 50.8639 266.469 50.7432 266.939C50.5335 267.449 50.953 267.119 50.1439 267.359C49.3349 267.598 48.8255 268.947 49.8443 269.187C54.5788 270.355 54.6986 263.673 54.3391 260.767C53.8622 258.802 53.591 256.794 53.5299 254.774C53.5632 253.987 53.8234 253.228 54.2791 252.586C54.5787 252.227 54.2791 252.137 54.9084 252.586C55.197 252.861 55.4276 253.191 55.5871 253.556C55.7466 253.922 55.8318 254.315 55.8373 254.714C55.5777 257.102 55.6786 259.517 56.1369 261.875C56.7362 263.433 58.6239 264.542 59.8525 262.894C60.4817 262.085 61.0512 260.767 61.8303 262.055C62.2498 262.714 62.2197 263.553 62.6992 264.183C62.9208 264.462 63.2093 264.682 63.5381 264.821C63.8669 264.96 64.2254 265.014 64.5806 264.978C64.9358 264.943 65.2762 264.818 65.5706 264.616C65.8649 264.414 66.1037 264.141 66.265 263.823C66.5773 263.065 66.8279 262.284 67.0141 261.486C67.3006 261.553 67.5907 261.603 67.883 261.636C68.5123 261.636 69.1116 262.085 69.7708 262.205C70.1251 262.303 70.4967 262.322 70.8592 262.261C71.2217 262.2 71.5664 262.06 71.8691 261.852C72.1719 261.643 72.4253 261.371 72.6115 261.054C72.7978 260.737 72.9123 260.383 72.9471 260.017C73.1022 259.105 73.0302 258.169 72.7373 257.291C72.5575 256.631 71.1793 253.695 71.7486 253.155C72.318 252.616 73.7862 253.725 74.1758 253.755C74.5663 253.808 74.9636 253.776 75.341 253.662C75.7183 253.549 76.0668 253.355 76.3631 253.096C77.1096 252.298 77.5634 251.271 77.6505 250.183C77.7376 249.094 77.4529 248.008 76.8427 247.103C75.1011 244.498 73.4908 241.808 72.0182 239.042C70.5412 235.43 69.8075 231.557 69.8608 227.655C69.8608 226.037 69.6211 219.235 71.9284 218.666C74.7451 218.037 75.584 226.127 75.7638 227.655C76.0334 229.754 76.0334 231.879 75.7638 233.978C75.4941 235.866 74.745 237.634 74.4453 239.492C74.0258 242.188 76.6927 243.117 77.0523 245.484C77.4119 247.852 77.5918 250.399 80.5583 250.758C80.789 250.762 81.0183 250.72 81.2326 250.635C81.4469 250.549 81.642 250.422 81.8065 250.26C81.9711 250.098 82.1019 249.905 82.1911 249.692C82.2804 249.48 82.3262 249.251 82.3261 249.02C82.3261 248.361 82.3262 247.073 82.9554 248.181C83.5847 249.29 82.9554 249.889 82.7457 250.698C82.3149 252.38 82.5176 254.161 83.315 255.703C84.7833 258.429 88.6187 260.197 90.2069 256.781C90.276 256.941 90.3782 257.084 90.5066 257.201C90.7586 257.655 91.0492 258.086 91.3756 258.489C92.3644 259.957 93.2932 261.156 95.211 260.976C95.7291 260.889 96.2251 260.701 96.6701 260.421C97.1151 260.142 97.5004 259.777 97.804 259.348C98.1075 258.92 98.3233 258.435 98.4388 257.922C98.5543 257.41 98.5674 256.879 98.4772 256.362H98.8068C99.5379 256.629 100.306 256.781 101.084 256.811C101.769 256.766 102.423 256.512 102.959 256.083C103.495 255.654 103.886 255.072 104.081 254.414C104.387 252.943 104.186 251.412 103.511 250.069C103.113 249.3 102.782 248.498 102.522 247.672C102.522 247.312 102.283 246.054 102.852 245.814C103.421 245.574 104.2 246.353 104.47 246.413C106.807 247.133 109.924 246.054 108.875 243.087C108.336 241.842 107.619 240.681 106.748 239.641C106.388 239.132 106.058 238.623 105.729 238.083C105.576 237.705 105.385 237.344 105.159 237.004C104.68 236.435 104.29 236.375 105.159 236.675C105.882 237.011 106.687 237.127 107.476 237.01C108.264 236.893 109 236.547 109.594 236.016C110.144 235.375 110.489 234.584 110.585 233.746C110.681 232.907 110.524 232.059 110.134 231.311C109.769 229.475 108.691 227.859 107.137 226.816C105.239 225.956 103.513 224.758 102.043 223.281C103.583 223.506 105.148 223.506 106.688 223.281C107.729 222.887 108.613 222.166 109.208 221.225C109.803 220.284 110.075 219.176 109.984 218.067C109.932 216.802 109.537 215.576 108.84 214.52C108.143 213.464 107.171 212.618 106.028 212.074C105.276 211.654 104.572 211.151 103.931 210.575C103.302 209.886 103.392 209.976 103.781 209.377C104.171 208.778 105.189 208.208 105.579 207.279C108.066 201.856 97.0989 198.889 93.8927 197.511C91.977 196.892 90.2747 195.746 88.9813 194.204C87.688 192.661 86.8561 190.785 86.5813 188.791C85.9712 184.534 86.113 180.204 87.0006 175.996C87.4201 174.138 91.9149 161.014 93.7427 156.938C94.5218 155.2 95.301 153.462 96.14 151.724V151.545L96.7392 151.005C96.919 150.826 96.7392 150.586 96.7392 150.586C97.0783 149.849 97.5336 149.171 98.0877 148.578C98.2665 149.86 98.2665 151.161 98.0877 152.444C98.0877 153.882 98.0877 155.44 98.0877 156.729C97.9726 159.449 98.496 162.158 99.6159 164.639C99.9516 165.111 100.242 165.612 100.485 166.138C100.665 166.917 100.275 167.037 99.6759 167.516C98.611 168.183 97.7827 169.169 97.3085 170.333C96.889 171.531 97.0089 172.58 96.1999 173.659C95.5517 174.367 95.1066 175.236 94.9114 176.176C94.7967 177.142 94.9963 178.119 95.4807 178.962C95.7204 179.382 96.3796 179.832 96.5294 180.251C96.6792 180.671 96.2 181.03 95.9303 181.659C95.2111 183.427 95.9302 185.884 98.1176 185.615C99.0466 185.615 99.9156 184.686 100.815 184.716C101.714 184.746 101.354 184.356 101.084 185.165C100.882 185.64 100.631 186.092 100.335 186.514C99.2263 188.222 97.7281 190.199 98.8668 192.297C99.0844 192.718 99.3989 193.082 99.7843 193.358C100.17 193.634 100.615 193.815 101.084 193.885C101.594 193.885 102.283 193.885 102.552 194.454C102.822 195.024 102.403 195.593 102.552 196.042C102.6 196.538 102.769 197.013 103.046 197.426C103.323 197.84 103.698 198.177 104.138 198.409C104.578 198.641 105.069 198.76 105.567 198.755C106.064 198.75 106.552 198.621 106.987 198.38C107.879 198 108.61 197.322 109.055 196.462C108.894 196.725 108.802 197.023 108.785 197.331C108.813 197.795 108.992 198.237 109.294 198.59C109.562 198.859 109.89 199.062 110.25 199.183C110.611 199.303 110.995 199.337 111.371 199.281C111.747 199.226 112.105 199.083 112.416 198.864C112.726 198.645 112.981 198.356 113.16 198.02C113.989 196.391 114.372 194.571 114.269 192.746C114.269 191.937 114.448 191.578 115.287 191.398C115.796 191.3 116.323 191.374 116.786 191.608C117.1 191.909 117.337 192.281 117.478 192.693C117.618 193.105 117.659 193.544 117.595 193.975C117.595 198.47 113.939 202.305 114.928 206.89C115.317 208.778 116.696 210.905 118.913 210.336C119.837 210.092 120.637 209.516 121.161 208.718C121.55 208.148 121.73 207.429 122.09 208.718C122.165 209.362 122.104 210.016 121.91 210.635C121.786 211.023 121.749 211.433 121.8 211.837C121.852 212.241 121.992 212.629 122.209 212.973C123.048 214.021 124.067 213.182 125.206 213.692C126.344 214.201 126.584 216.508 128.442 216.359C130.3 216.209 131.199 214.171 131.139 212.703C131.042 211.762 130.746 210.853 130.27 210.036C129.939 209.522 129.733 208.937 129.671 208.328C129.671 207.279 130.57 206.141 131.588 206.98C132.607 207.819 132.397 209.497 132.457 210.635C132.494 211.782 132.717 212.916 133.117 213.991C133.956 216.059 135.813 218.306 138.3 217.887C139.096 217.7 139.791 217.22 140.247 216.542C140.703 215.863 140.885 215.038 140.758 214.231C140.758 213.932 140.758 212.493 140.578 212.433C141.117 212.583 141.207 214.651 141.297 215.07C141.597 216.718 142.256 218.786 144.293 218.426C145.402 218.246 146.211 217.407 147.29 217.377C148.394 217.507 149.504 217.577 150.616 217.587C151.584 217.472 152.477 217.011 153.132 216.29C153.787 215.569 154.16 214.636 154.182 213.662C154.042 212.669 153.972 211.668 153.972 210.665C154.05 209.692 153.773 208.724 153.193 207.939C152.833 207.429 151.545 206.231 151.515 205.481C151.515 205.481 151.515 205.481 151.935 205.481C152.354 205.481 152.684 205.481 153.043 205.272C153.787 205.013 154.399 204.471 154.746 203.765C155.094 203.058 155.15 202.243 154.901 201.496C154.57 200.269 153.975 199.129 153.157 198.156C152.339 197.182 151.319 196.4 150.167 195.863C149 195.384 147.86 194.844 146.751 194.245C146.152 193.889 145.681 193.354 145.402 192.716C145.402 192.477 145.252 191.907 145.192 191.638C145.133 191.368 146.061 191.638 146.331 191.638C147.172 191.825 147.994 192.085 148.788 192.417C150.002 193.018 151.293 193.451 152.624 193.705C153.517 193.74 154.397 193.48 155.128 192.966C155.859 192.451 156.4 191.711 156.669 190.859C156.862 189.856 156.779 188.821 156.429 187.862C156.25 187.413 156.07 186.933 155.86 186.484C155.65 186.034 155.141 185.195 154.901 185.165C155.152 185.001 155.412 184.851 155.68 184.716C156.17 184.3 156.513 183.737 156.658 183.111C156.804 182.485 156.745 181.829 156.489 181.24C155.8 179.682 153.852 179.142 152.384 178.723C151.369 178.444 150.369 178.114 149.387 177.734C150.916 177.584 152.384 177.045 152.384 175.157C152.384 173.269 151.155 173.059 149.897 172.61C149.435 172.51 148.999 172.314 148.617 172.036C148.235 171.757 147.916 171.401 147.679 170.992C147.399 170.295 146.993 169.655 146.481 169.104C145.734 168.675 144.906 168.406 144.05 168.313C143.194 168.221 142.328 168.306 141.507 168.565C139.033 169.008 136.488 168.823 134.105 168.025C133.656 167.846 131.888 167.156 131.618 166.677C131.994 166.434 132.41 166.261 132.847 166.168C134.165 165.686 135.55 165.413 136.952 165.359C139.949 165.359 143.634 167.666 146.361 165.538C146.819 165.249 147.164 164.812 147.338 164.299C147.513 163.787 147.506 163.23 147.32 162.722C146.691 161.103 145.013 160.534 145.043 158.586C145.043 157.388 145.372 155.92 144.383 154.991C143.395 154.062 141.387 154.182 141.027 152.563C140.668 150.945 140.668 149.807 139.439 149.028C138.933 148.755 138.366 148.612 137.791 148.612C137.216 148.612 136.65 148.755 136.143 149.028C135.492 149.331 134.821 149.591 134.135 149.807C133.776 149.807 133.326 149.807 132.997 149.807L132.637 149.657C132.218 150.226 132.158 150.256 132.427 149.807C132.787 148.219 133.686 146.57 131.888 145.342C131.462 145.03 130.974 144.813 130.458 144.704C129.941 144.596 129.407 144.599 128.892 144.713C128.466 144.107 127.939 143.58 127.333 143.155C126.871 142.918 126.438 142.626 126.045 142.286C125.296 141.536 125.685 142.076 126.045 141.506C126.794 140.248 127.783 139.589 127.064 138.12C126.824 137.671 126.255 137.162 126.225 136.622C126.195 136.083 126.494 135.963 127.363 135.663C128.689 135.311 129.967 134.798 131.169 134.135C133.148 133.042 134.629 131.228 135.304 129.071C135.609 128.241 135.716 127.351 135.618 126.472C135.519 125.593 135.216 124.749 134.735 124.007C133.476 122.599 131.738 123.318 130.36 124.277C129.492 124.969 128.743 125.799 128.142 126.734C127.693 127.363 126.494 129.341 125.805 128.112C125.505 127.603 125.805 126.404 125.805 125.805C125.736 125.263 125.559 124.741 125.287 124.268C125.014 123.795 124.651 123.38 124.217 123.048C123.408 122.479 121.94 122.389 121.221 121.58C120.501 120.771 121.221 120.711 121.7 120.142C122.092 119.723 122.434 119.26 122.719 118.763C123.438 117.265 123.738 114.958 121.79 114.388C120.891 114.149 119.962 114.388 119.063 114.388C118.164 114.388 117.864 113.699 118.314 113.1C118.704 112.817 119.156 112.632 119.632 112.56C121.61 111.931 123.648 111.721 125.625 110.912C126.476 110.617 127.258 110.151 127.923 109.543C128.587 108.935 129.121 108.198 129.491 107.377C129.97 106.178 130.3 104.2 129.131 103.271C126.944 101.533 123.138 104.65 120.651 104.77C120.052 104.77 118.704 104.56 118.763 103.661C118.823 102.762 120.322 102.223 120.771 101.893C122.221 101.055 123.293 99.693 123.768 98.0874C123.947 97.0386 123.468 96.5891 123.258 95.7201C123.528 95.7201 123.947 95.5703 124.067 95.5404C124.644 95.4224 125.215 95.2724 125.775 95.0909C126.244 94.912 126.668 94.6311 127.015 94.2683C127.363 93.9055 127.625 93.4701 127.783 92.9934C127.903 92.5622 127.903 92.1062 127.783 91.675C130.779 91.675 133.956 93.9822 136.203 90.4164C136.798 89.4655 137.176 88.3954 137.31 87.282C137.445 86.1686 137.333 85.0392 136.982 83.974L138.061 85.2325C140.104 87.7725 141.975 90.4452 143.664 93.2331C145.339 95.6945 146.708 98.351 147.739 101.144C144.09 102.476 140.784 104.605 138.061 107.377C136.144 109.073 134.416 110.972 132.907 113.04C131.409 115.167 130.57 117.714 128.862 119.722C128.682 119.902 128.862 120.082 129.101 119.902C130.48 118.179 131.712 116.345 132.787 114.418C134.394 112.192 136.221 110.134 138.241 108.275C140.894 105.364 144.246 103.178 147.979 101.923C148.698 104.56 148.998 107.287 149.597 109.924C150.646 114.418 151.964 118.913 152.983 123.318C149.424 125.727 146.578 129.05 144.743 132.937C143.536 135.252 142.534 137.668 141.746 140.158C141.526 142.348 140.939 144.486 140.008 146.481C139.799 146.81 140.248 146.87 140.428 146.66C141.474 145.251 142.153 143.603 142.406 141.866C142.998 139.376 143.851 136.955 144.953 134.645C146.562 130.379 149.464 126.722 153.253 124.187C153.553 125.625 153.852 127.183 154.062 128.502C154.961 134.914 155.111 141.447 155.44 147.859C155.77 154.272 154.931 161.103 156.759 167.576C156.759 167.756 157.268 167.726 157.238 167.576C156.629 161.503 156.469 155.394 156.759 149.297C156.759 145.791 156.549 142.226 156.369 138.69C159.187 141.812 161.457 145.388 163.081 149.267C164.952 153.502 165.97 158.064 166.078 162.692C166.078 163.081 166.677 162.841 166.707 162.542C166.967 157.817 166.083 153.099 164.13 148.788C162.374 144.402 159.881 140.348 156.759 136.802C156.684 136.722 156.588 136.665 156.481 136.639C156.375 136.612 156.263 136.617 156.16 136.652C155.98 134.165 155.8 131.708 155.5 129.281C154.991 125.491 154.24 121.738 153.253 118.044C157.614 120.675 161.519 123.994 164.819 127.872C168.265 132.038 170.812 136.862 174.019 141.177C174.168 141.387 174.678 141.327 174.528 141.027C172.163 135.866 169.142 131.031 165.539 126.644C161.957 122.608 157.772 119.151 153.133 116.396H152.953C152.564 114.868 152.174 113.399 151.815 111.781C151.095 108.785 150.676 105.788 150.047 102.792C149.57 100.778 148.835 98.8339 147.859 97.0087C149.659 96.7926 151.47 96.6825 153.283 96.679C155.417 96.7793 157.526 97.1829 159.546 97.8776C161.463 98.5069 163.351 99.256 165.209 100.035C166.76 100.885 168.458 101.434 170.213 101.653C170.393 101.653 170.633 101.234 170.393 101.174C168.462 100.688 166.628 99.8774 164.969 98.7766C163.052 97.837 161.044 97.094 158.976 96.5592C157.025 96.0002 155.012 95.6881 152.983 95.6303C151.083 95.4738 149.172 95.7293 147.38 96.3794L146.241 94.3718C142.584 88.4054 138.519 82.6985 134.075 77.2918C133.326 76.3629 130.899 77.1121 131.828 78.2807L132.068 78.5803C131.049 82.0861 128.562 85.0826 127.933 88.7084C127.301 88.7028 126.673 88.8042 126.075 89.0081C125.645 89.1767 125.283 89.4825 125.044 89.878C124.806 90.2735 124.705 90.7366 124.756 91.1955C124.756 91.5851 125.056 92.0045 125.086 92.3641C125.116 92.7237 125.086 92.3642 125.086 92.514C124.863 92.5909 124.632 92.6411 124.397 92.6638C123.394 92.7944 122.443 93.1872 121.64 93.8024C121.304 94.1229 121.038 94.5091 120.857 94.9369C120.677 95.3648 120.586 95.8252 120.591 96.2895C120.591 97.1585 121.61 97.7578 121.61 98.477C121.61 99.6755 119.003 100.964 118.224 101.773C117.577 102.093 117.044 102.604 116.696 103.236C116.348 103.868 116.201 104.591 116.276 105.309C117.295 108.725 121.52 107.287 123.917 106.597C124.607 106.388 127.094 105.369 126.255 106.837C125.416 108.305 122.509 108.695 120.951 109.085C119.062 109.345 117.286 110.134 115.827 111.362C115.134 111.969 114.68 112.804 114.549 113.716C114.417 114.628 114.615 115.557 115.108 116.336C115.383 116.73 115.734 117.066 116.141 117.323C116.547 117.58 117.001 117.754 117.475 117.834C117.914 117.863 118.354 117.863 118.793 117.834H119.453C118.611 118.399 117.958 119.204 117.579 120.144C117.199 121.085 117.111 122.117 117.325 123.108C117.626 124.23 118.344 125.195 119.333 125.805C120.322 126.404 121.7 126.404 122 127.723C122.299 129.041 122 131.229 123.798 131.918C125.595 132.607 127.513 131.019 128.532 129.55C129.081 128.451 129.882 127.496 130.869 126.764C132.218 126.015 132.457 127.273 132.278 128.442C131.708 132.038 127.573 132.487 124.936 133.806C124.48 134.012 124.073 134.316 123.746 134.695C123.419 135.075 123.179 135.522 123.042 136.004C122.905 136.486 122.875 136.992 122.953 137.487C123.032 137.982 123.218 138.454 123.498 138.87C123.725 139.302 124.019 139.696 124.367 140.038C123.738 140.038 123.288 141.297 123.198 141.806C123.147 142.268 123.214 142.736 123.392 143.166C123.57 143.595 123.854 143.973 124.217 144.263C124.936 144.833 125.925 144.892 126.644 145.342C124.529 146.721 122.525 148.264 120.651 149.957C120.651 149.957 120.651 150.376 120.651 150.316C122.099 149.916 123.496 149.353 124.816 148.638C125.715 148.086 126.759 147.815 127.813 147.859C128.21 147.869 128.592 148.017 128.892 148.279C129.701 148.998 129.191 148.668 129.101 149.297C128.952 150.406 128.262 151.155 129.101 152.294C129.612 152.725 130.218 153.028 130.87 153.179C131.521 153.33 132.198 153.325 132.847 153.163C133.956 152.923 134.915 152.174 135.843 151.934C136.772 151.695 137.132 153.073 137.491 154.212C137.63 154.703 137.876 155.158 138.214 155.541C138.551 155.925 138.969 156.228 139.439 156.429C140.111 156.616 140.763 156.867 141.387 157.178C142.016 157.658 142.016 158.197 142.106 159.006C142.13 160.076 142.463 161.117 143.065 162.002C143.275 162.302 144.623 163.531 144.593 163.83C144.593 164.699 142.885 164.4 142.316 164.31C139.679 163.614 136.94 163.391 134.225 163.65C132.308 164.01 129.401 164.699 128.472 166.647C127.124 169.494 130.899 170.752 132.997 170.962C135.207 171.062 137.422 170.981 139.619 170.722C140.607 170.542 141.612 170.472 142.615 170.512C144.263 170.782 144.263 171.651 144.923 172.82C145.822 174.468 147.17 174.378 148.608 175.277C150.047 176.176 148.189 175.756 147.5 175.756C146.852 175.697 146.2 175.697 145.552 175.756C145.343 175.804 145.147 175.895 144.975 176.023C144.803 176.15 144.659 176.312 144.552 176.497C144.445 176.683 144.378 176.888 144.354 177.101C144.33 177.314 144.35 177.529 144.413 177.734C144.817 178.484 145.376 179.139 146.053 179.655C146.73 180.172 147.509 180.539 148.339 180.73C149.447 181.09 152.953 181.569 153.403 182.918C153.613 183.547 152.803 183.607 152.354 184.176C152.102 184.51 151.935 184.9 151.867 185.312C151.799 185.724 151.832 186.147 151.964 186.544C152.294 187.742 154.961 191.518 152.294 191.308C150.882 190.955 149.515 190.442 148.219 189.78C146.972 189.251 145.601 189.084 144.264 189.3C140.548 190.349 141.717 195.293 144.264 196.881C146.811 198.47 149.178 198.709 150.676 201.017C151.035 201.586 151.185 202.365 151.515 202.904C150.926 203.026 150.36 203.238 149.837 203.534C149.119 203.945 148.578 204.606 148.318 205.392C148.059 206.177 148.098 207.031 148.429 207.789C148.892 208.62 149.423 209.412 150.017 210.156C150.766 211.295 150.346 212.223 150.406 213.512C150.466 214.8 151.155 215.25 149.717 215.19C148.724 215.053 147.723 214.982 146.721 214.98C146.091 214.98 144.413 216.149 143.994 216.029C143.574 215.909 143.275 213.812 143.155 213.242C142.915 211.924 142.525 210.066 140.907 209.946C140.029 210.014 139.196 210.366 138.536 210.951C137.876 211.535 137.425 212.318 137.252 213.182C137.146 213.837 137.146 214.505 137.252 215.16L136.652 214.92C136.254 214.606 135.919 214.22 135.664 213.782C134.315 211.624 134.974 209.287 134.105 206.98C132.487 202.575 127.034 205.092 127.004 209.047C127.054 209.886 127.257 210.709 127.603 211.474C127.843 212.044 129.071 214.681 127.903 214.321C127.423 214.171 126.914 212.943 126.584 212.523C126.255 212.104 125.506 211.894 124.696 211.654C123.108 211.145 123.977 210.216 124.007 208.957C124.06 208.069 123.759 207.196 123.168 206.53C122.832 206.25 122.426 206.065 121.993 205.997C121.561 205.928 121.118 205.978 120.711 206.141C119.692 206.5 119.602 207.459 118.913 207.969C117.175 209.287 116.636 205.751 116.666 204.762C116.826 203.161 117.262 201.6 117.954 200.148C118.597 198.561 119.04 196.9 119.273 195.203C119.722 192.027 118.674 188.671 114.808 189.42C113.847 189.593 112.976 190.094 112.342 190.837C111.708 191.58 111.351 192.519 111.332 193.495C111.332 194.424 111.332 195.353 111.152 196.252C111.152 196.522 111.152 197.181 110.853 197.361C110.553 197.541 110.853 197.361 110.673 196.941C110.493 196.522 110.493 196.342 110.343 196.012C110.26 195.66 110.075 195.339 109.812 195.091C109.549 194.842 109.219 194.675 108.862 194.611C108.505 194.548 108.138 194.59 107.805 194.732C107.472 194.875 107.188 195.111 106.987 195.413C106.808 195.653 106.688 196.132 106.478 196.342C105.369 197.331 104.44 196.072 104.41 194.994C104.38 193.915 104.68 193.316 103.901 192.477C103.122 191.638 102.313 192.057 101.444 191.608C99.7657 190.739 101.444 189.001 102.043 188.102C102.623 187.462 103.062 186.707 103.33 185.886C103.599 185.065 103.691 184.196 103.601 183.337C103.002 181.39 100.605 181.899 99.2863 182.558C99.0766 182.558 98.1177 183.337 97.9379 183.248C97.7581 183.158 98.1775 182.019 98.2674 181.809C98.5308 181.427 98.6913 180.984 98.7333 180.522C98.7753 180.06 98.6974 179.595 98.5072 179.172C97.9978 178.153 96.3798 177.404 96.8892 176.176C97.3986 174.947 98.3275 174.618 98.747 173.659C98.8987 173.239 99.0188 172.808 99.1065 172.37C99.1486 171.962 99.2909 171.571 99.521 171.231C99.751 170.891 100.062 170.613 100.425 170.423C101.461 169.791 102.318 168.904 102.912 167.846C103.871 165.808 102.732 164.13 101.803 162.362C100.786 159.951 100.237 157.368 100.185 154.751C100.185 154.991 100.185 155.26 100.425 155.53C101.17 158.527 102.173 161.455 103.421 164.28C105.697 169.277 108.854 173.825 112.741 177.704C116.067 180.951 119.723 183.843 123.648 186.334C123.616 186.372 123.599 186.419 123.599 186.469C123.599 186.518 123.616 186.566 123.648 186.604C124.794 189.211 125.258 192.067 124.996 194.904C124.364 197.32 124.251 199.842 124.666 202.305C124.666 202.485 125.146 202.305 125.086 202.305C124.903 199.655 125.156 196.993 125.835 194.424C125.979 191.852 125.539 189.281 124.547 186.903L127.154 188.611C129.491 190.109 131.768 191.787 134.045 193.436C136.436 194.997 138.477 197.038 140.038 199.429C140.038 199.578 140.368 199.428 140.308 199.279C138.121 195.173 133.686 192.447 130.09 189.72C127.573 187.802 124.816 186.274 122.239 184.506C119.519 182.644 117.077 180.404 114.988 177.854L114.718 177.494C118.669 178.232 122.703 178.414 126.704 178.034C131.268 177.706 135.809 178.931 139.589 181.51C139.589 181.51 139.949 181.33 139.829 181.21C136.443 178.695 132.331 177.348 128.112 177.374C125.775 177.195 123.408 177.374 121.071 177.374C118.565 177.322 116.081 176.897 113.699 176.116C110.904 172.193 108.533 167.985 106.628 163.561C110.098 163.503 113.498 162.576 116.516 160.864ZM131.259 83.6743L132.427 81.2172C132.679 81.9456 133 82.648 133.386 83.3148C134.315 84.9928 135.604 87.6597 133.985 89.3077C132.997 90.3865 130.989 89.3077 129.88 89.0081C129.644 88.934 129.404 88.874 129.161 88.8283C129.624 87.0234 130.33 85.2896 131.259 83.6743Z" fill="#88A956"/>
<path d="M5.40571 155.53C9.75062 157.028 13.4363 154.211 17.6014 153.492C18.4353 153.295 19.2924 153.215 20.1484 153.253C21.3769 153.492 20.3582 154.212 19.669 154.781C18.3322 155.693 16.8943 156.447 15.3841 157.028C12.837 158.317 9.90042 161.163 12.6871 163.89C13.3806 164.468 14.1846 164.9 15.0501 165.157C15.9156 165.415 16.8244 165.493 17.7212 165.388C18.3722 165.309 19.0144 165.169 19.639 164.969L21.1673 164.669C21.0035 165.196 21.0035 165.76 21.1673 166.287C21.7066 167.786 23.5344 168.115 24.8829 168.025C26.3729 167.987 27.8115 167.472 28.988 166.557C29.7025 165.877 30.3177 165.101 30.8158 164.25C31.6816 163.017 32.8754 162.052 34.2619 161.463C35.6574 160.851 37.1139 160.389 38.6068 160.085C39.1761 160.085 39.8353 160.085 40.4046 159.845H40.5844C40.2642 160.112 39.9638 160.403 39.6855 160.714C37.983 162.07 36.1571 163.264 34.2319 164.28C32.9734 165.089 31.2354 166.197 31.0256 167.815C31.0032 168.601 31.2168 169.374 31.6389 170.037C32.0609 170.699 32.6719 171.22 33.393 171.531C34.1278 171.889 34.9451 172.045 35.7601 171.981C36.1147 171.899 36.4646 171.799 36.8088 171.681C36.6541 171.966 36.5731 172.285 36.5731 172.61C36.5731 172.934 36.6541 173.254 36.8088 173.539C37.3647 174.132 38.0684 174.567 38.8477 174.799C39.627 175.03 40.454 175.05 41.2437 174.857C42.6934 174.496 43.993 173.689 44.9593 172.55C45.5287 171.981 46.0381 171.351 46.6374 170.812C46.9521 170.539 47.2933 170.298 47.6561 170.093C47.6561 170.303 47.6561 170.542 47.4763 170.722C47.283 171.141 47.1982 171.603 47.2296 172.063C47.261 172.524 47.4076 172.97 47.6561 173.359C49.5139 175.696 54.4283 173.958 55.8366 171.921L56.0762 171.681L56.6755 172.25C57.2993 172.643 58.0085 172.879 58.7431 172.94C60.761 172.875 62.683 172.063 64.1367 170.662C67.4447 167.395 71.1258 164.529 75.104 162.122C76.8666 161.446 78.5788 160.644 80.2278 159.725C81.6889 158.613 83.3313 157.761 85.0823 157.208H85.2621C85.3092 157.566 85.3092 157.929 85.2621 158.287C85.0298 159.767 84.5961 161.209 83.9735 162.572C83.0084 165.027 81.7402 167.353 80.198 169.494C77.1591 173.948 73.5415 177.978 69.4406 181.48C67.0057 183.193 64.3815 184.621 61.6198 185.734C59.2238 187.04 56.556 187.769 53.8288 187.862C50.4428 187.682 45.3189 186.334 43.1015 189.87C42.5022 190.829 42.4422 191.698 41.1538 191.668C40.2775 191.508 39.4157 191.278 38.5768 190.978C37.741 190.734 36.8547 190.72 36.0112 190.936C35.1677 191.152 34.3978 191.591 33.7823 192.207C33.2729 192.746 33.1533 193.915 32.4641 194.125C31.7749 194.334 31.1456 193.825 30.726 193.705C29.2761 193.143 27.6956 193.008 26.1713 193.316C23.1748 194.095 21.2272 198.02 23.7742 200.267C24.7031 201.077 26.2312 201.196 27.0702 202.005C27.9093 202.814 26.7107 203.174 25.8418 203.144C22.8453 202.964 19.4293 201.586 17.3917 204.552C16.8523 205.332 16.7923 206.5 16.193 207.219C15.5937 207.938 14.7248 207.968 14.0356 208.418C13.7772 208.553 13.5503 208.742 13.3699 208.971C13.1895 209.2 13.0597 209.465 12.9889 209.748C12.9182 210.031 12.908 210.326 12.9593 210.613C13.0106 210.9 13.1221 211.173 13.2865 211.414C14.0109 212.367 14.9573 213.128 16.0432 213.632L16.4927 213.901C15.9703 214.043 15.4399 214.153 14.9045 214.231C13.8964 214.262 12.9079 214.517 12.011 214.978C11.1141 215.44 10.3316 216.095 9.72066 216.898C8.76178 218.396 9.57074 219.415 10.5596 220.464C9.03137 221.513 7.11365 221.812 6.84397 224.119C6.79214 224.929 7.05207 225.728 7.57023 226.352C8.08839 226.976 8.82549 227.378 9.63068 227.476C11.357 227.76 13.1184 227.76 14.8447 227.476H15.5039C15.2641 227.266 15.0544 228.075 14.9645 228.345C14.4381 229.336 14.2289 230.466 14.3652 231.581C14.5111 232.066 14.7569 232.515 15.0869 232.899C15.4168 233.283 15.8235 233.593 16.2808 233.811C16.7381 234.028 17.2357 234.147 17.7419 234.161C18.248 234.174 18.7514 234.081 19.2195 233.888C20.4286 233.486 21.4782 232.71 22.2159 231.671C22.6055 231.161 22.8453 230.562 23.2348 230.053C23.4953 229.707 23.7971 229.395 24.1337 229.124C23.8641 230.712 22.6654 232.27 23.894 233.828C24.2238 234.223 24.631 234.546 25.0903 234.778C25.5495 235.01 26.0512 235.145 26.5647 235.176C27.0782 235.207 27.5926 235.132 28.0763 234.957C28.56 234.782 29.0028 234.51 29.3776 234.158C30.6361 233.169 31.5651 230.172 33.2132 230.142C33.5621 230.112 33.913 230.112 34.2619 230.142C33.7894 230.417 33.3386 230.728 32.9134 231.071C30.756 232.809 29.1378 235.386 26.5009 236.465C23.864 237.544 16.5226 239.461 19.7888 243.866C20.3282 244.585 21.9464 245.125 22.1561 245.484C22.3659 245.844 22.1561 247.522 22.1561 248.211C22.3244 248.738 22.6246 249.213 23.0285 249.591C23.4325 249.968 23.9264 250.236 24.4633 250.369C24.7685 250.487 25.0955 250.538 25.4222 250.518C25.4392 250.608 25.4392 250.699 25.4222 250.788C25.3801 251.101 25.4002 251.419 25.4815 251.724C25.5627 252.03 25.7034 252.316 25.8955 252.566C26.0877 252.817 26.3275 253.027 26.6011 253.185C26.8747 253.342 27.1766 253.444 27.4898 253.485C28.2835 253.708 29.1232 253.708 29.9169 253.485C29.3449 253.955 28.8496 254.511 28.4487 255.133C27.2801 257.021 26.6209 260.317 28.7185 261.785C29.1539 262.077 29.6447 262.275 30.1604 262.368C30.676 262.461 31.2052 262.446 31.7149 262.325C32.2222 262.185 32.7141 261.994 33.1832 261.755C33.8724 261.486 33.7824 261.336 33.9921 261.755C34.2019 262.175 33.7524 263.853 33.6625 264.482C33.4088 265.465 33.4088 266.496 33.6625 267.479C34.3074 268.614 35.2959 269.516 36.4858 270.055C37.6758 270.593 39.006 270.74 40.2848 270.475C41.424 270.328 42.48 269.8 43.2813 268.977C43.7072 268.433 43.9673 267.777 44.0304 267.089C44.0304 266.64 44.0303 265.92 44.3 265.591L46.4576 265.021C46.756 265.368 46.9712 265.778 47.0867 266.22C47.2965 266.759 48.5252 266.64 48.3154 266.01C47.3865 263.433 44.4799 262.594 42.9218 265.261C42.2925 266.31 42.4723 267.539 41.3935 268.258C40.8744 268.604 40.2807 268.822 39.661 268.895C39.0413 268.968 38.413 268.893 37.8277 268.677C35.4005 267.898 35.6103 266.25 36.3295 264.332C36.8806 263.345 37.1501 262.226 37.1086 261.096C36.9054 260.47 36.5018 259.929 35.9602 259.555C35.4186 259.181 34.7693 258.996 34.1121 259.028C33.4394 258.993 32.7664 259.095 32.1343 259.328L31.3852 259.658L31.0256 259.838C30.6061 260.047 30.5462 260.047 30.8158 259.838C30.3664 259.268 30.816 257.68 31.1156 257.051C31.5261 256.013 32.2902 255.153 33.273 254.624C36.4193 252.856 39.6556 252.346 41.9929 249.32C43.7308 247.043 44.7196 243.657 41.004 242.758C37.2883 241.859 33.9322 244.496 31.625 247.432C31.1768 248.036 30.6862 248.606 30.1567 249.14C30.1567 249.14 30.1567 248.93 30.1567 248.84C29.7431 248.15 29.0912 247.635 28.324 247.392C27.5567 247.149 26.7271 247.195 25.9915 247.522C25.9915 247.222 25.9915 246.773 25.9915 246.623C26.0891 245.784 25.9216 244.935 25.5122 244.196C25.0028 243.417 22.995 242.997 23.1449 241.949C23.2947 240.9 26.2912 240.151 27.1602 239.881C28.6155 239.505 30.0157 238.941 31.3254 238.203C33.4229 236.944 35.1309 235.057 37.1386 233.648C41.004 231.011 45.7383 230.292 49.3641 227.236C51.7912 225.168 55.3572 221.003 53.0199 217.677C50.8924 214.681 46.4875 215.939 43.7607 217.108C40.4954 218.301 37.7782 220.645 36.1197 223.7C35.4258 224.795 34.8722 225.973 34.4717 227.206C34.5105 227.323 34.5105 227.449 34.4717 227.565H33.8423C33.0797 227.457 32.3027 227.519 31.567 227.747C30.8313 227.975 30.1552 228.363 29.5874 228.884C29.0966 229.409 28.6458 229.97 28.2389 230.562C28.2389 230.352 28.2389 230.172 28.2389 230.023C28.3412 229.596 28.3487 229.152 28.2607 228.722C28.1727 228.293 27.9913 227.887 27.7296 227.535C27.0376 226.85 26.1485 226.397 25.1868 226.242C24.2252 226.086 23.2388 226.234 22.3657 226.666C21.3957 227.056 20.5546 227.71 19.9386 228.554C19.6689 228.914 19.4592 229.273 19.2195 229.633C19.1872 229.714 19.1358 229.786 19.0697 229.843C19.3473 229.413 19.569 228.95 19.729 228.464C19.843 228.057 19.8616 227.629 19.7837 227.213C19.7057 226.798 19.5332 226.405 19.2795 226.067C18.7763 225.495 18.1446 225.05 17.4363 224.768C16.7279 224.487 15.9631 224.378 15.2043 224.449C13.8397 224.69 12.4494 224.75 11.0691 224.629C11.0857 224.56 11.0857 224.488 11.0691 224.419C11.0691 223.79 11.3987 223.55 11.8182 223.191C12.8003 222.617 13.7415 221.976 14.6349 221.273C14.7971 221.092 14.8868 220.857 14.8868 220.614C14.8868 220.37 14.7971 220.136 14.6349 219.954C14.0356 219.295 13.0768 218.726 13.3465 217.917C13.6162 217.108 15.2343 216.928 15.9834 216.838C17.5813 216.829 19.1269 216.268 20.3581 215.25C22.2759 213.182 18.9498 211.864 17.3617 211.205C17.062 211.205 16.223 210.815 16.1032 210.485C15.9833 210.156 16.6424 210.006 17.1219 209.796C17.7657 209.518 18.344 209.107 18.8189 208.591C19.2939 208.075 19.655 207.465 19.8788 206.8C20.7478 204.972 21.1972 205.092 22.8753 205.391C24.3007 205.715 25.7584 205.876 27.2202 205.871C29.7373 205.871 32.7935 203.773 31.0256 200.957C30.2442 199.983 29.2064 199.246 28.0291 198.829C27.6995 198.829 26.9805 198.47 26.8307 198.11C26.7641 197.726 26.8075 197.331 26.9559 196.97C27.1044 196.61 27.3518 196.298 27.6696 196.072C28.4187 195.773 30.3364 196.612 31.1754 196.702C31.929 196.846 32.7058 196.812 33.4444 196.604C34.1829 196.396 34.8629 196.019 35.4305 195.503C35.7901 195.024 35.8201 194.364 36.1497 193.885C37.0486 192.716 38.427 193.675 39.5357 193.885C40.3342 194.222 41.2014 194.366 42.066 194.303C42.9307 194.241 43.7681 193.974 44.5098 193.525C46.038 192.327 45.7384 190.199 47.7761 189.66C50.0325 189.451 52.3059 189.511 54.5481 189.84C59.0429 189.84 63.7172 186.424 67.313 183.997C71.4422 181.204 75.1035 177.776 78.1604 173.838C80.1981 171.232 82.0559 168.655 84.1534 166.167C84.483 165.778 84.9024 165.269 85.3219 164.699C85.3219 165.119 85.3219 165.508 85.1121 165.928C84.363 168.924 83.4042 171.711 82.3854 174.528C79.8084 181.599 76.872 188.491 73.6657 195.293L73.396 195.863C69.5306 196.625 65.7402 197.728 62.0692 199.159C58.0666 200.185 54.125 201.435 50.263 202.904L49.3043 203.324C47.757 202.997 46.2638 202.452 44.8694 201.706C44.138 201.372 43.3875 201.082 42.622 200.837C41.8099 200.632 40.97 200.561 40.1351 200.627C39.9553 200.627 39.6856 201.047 40.1351 201.076C40.8983 201.243 41.6345 201.515 42.3224 201.886C43.0715 202.215 43.7906 202.665 44.4798 203.054C45.3431 203.574 46.2568 204.006 47.2067 204.343C44.4444 205.664 41.7718 207.166 39.2061 208.837C37.449 209.943 35.7672 211.164 34.1719 212.493C32.4646 214.118 30.62 215.591 28.6585 216.898C28.4487 217.048 28.4187 217.467 28.6585 217.317C32.1236 215.62 35.3813 213.529 38.367 211.085C41.7988 208.686 45.4392 206.6 49.2443 204.852C49.3932 204.857 49.5411 204.827 49.6763 204.764C49.8115 204.702 49.9304 204.609 50.0234 204.493C53.7479 202.848 57.5826 201.467 61.4998 200.357C60.8706 201.376 60.2113 202.395 59.642 203.354C59.0683 204.551 58.568 205.782 58.1438 207.04C57.098 208.851 56.7165 210.97 57.0651 213.033C57.0651 213.242 57.4847 213.033 57.5146 213.033C57.9393 210.909 58.6236 208.846 59.5522 206.89C60.0317 205.691 60.4511 204.523 61.0205 203.384C61.5898 202.245 62.1892 201.077 62.7885 199.908L67.6128 198.889C69.3432 198.399 71.1053 198.029 72.8866 197.78C70.01 203.773 67.1133 209.766 64.1967 215.759C60.9605 222.501 56.5556 228.524 52.8999 235.027C52.4504 235.027 52.0011 235.326 51.5516 235.416C50.9575 235.538 50.3573 235.628 49.7537 235.686C48.4951 235.836 47.2366 235.866 46.008 236.135C43.162 236.843 40.3767 237.775 37.6779 238.922C37.6779 238.922 37.4682 239.342 37.6779 239.282C40.4238 238.393 43.2408 237.741 46.098 237.334L49.6938 237.034C50.2996 236.978 50.9005 236.878 51.4917 236.735H52.031C50.3829 239.881 49.0344 243.117 47.2665 246.293C45.5884 249.062 44.4119 252.105 43.7907 255.283C43.7907 255.672 44.2103 255.463 44.2402 255.283C45.2111 251.859 46.6639 248.59 48.5552 245.574C50.1733 242.368 51.5516 239.132 53.4095 235.986C55.2673 232.839 56.9152 229.993 58.7431 226.846C61.1703 234.997 59.5822 244.166 63.8972 251.747C63.8972 251.927 64.3166 251.747 64.2567 251.537C60.4212 243.417 62.7584 234.068 59.732 225.797C59.7091 225.748 59.6758 225.703 59.6345 225.667C59.5932 225.631 59.5447 225.604 59.4922 225.588C61.41 222.382 63.2977 219.175 65.0656 215.909C68.3618 209.736 71.4782 203.504 74.4746 197.241C74.6419 197.017 74.764 196.763 74.8342 196.492C76.0628 193.915 77.2614 191.308 78.46 188.671L78.9096 190.019C78.9096 190.019 79.1493 190.019 79.2691 190.019C79.389 190.019 79.5088 189.87 79.4489 189.72L78.7296 188.072C80.7073 183.637 82.685 179.082 84.5428 174.707C86.8315 170.134 88.2539 165.176 88.7379 160.085C90.2961 156.938 90.5658 153.822 85.7415 153.522C82.0573 153.73 78.5514 155.176 75.7931 157.627C74.0551 158.916 72.4671 160.324 70.6392 161.493C68.77 162.662 66.9874 163.963 65.3054 165.388C64.4065 166.197 63.5376 167.066 62.6087 167.845C61.6798 168.625 60.661 169.763 59.6122 169.823C58.5634 169.883 58.5633 169.344 57.8142 169.014C56.8627 168.629 55.8136 168.556 54.8177 168.804C53.9035 169.133 53.0596 169.631 52.3306 170.273C52.0744 170.508 51.8044 170.729 51.5217 170.932H51.3719C51.3719 170.632 51.5515 170.333 51.6115 170.063C52.3006 167.066 49.454 166.497 47.0867 167.066C45.3619 167.623 43.8332 168.663 42.682 170.063C42.1353 170.811 41.4546 171.451 40.6744 171.951C40.1051 172.16 40.3448 172.25 40.3148 171.951C40.2849 171.651 40.8541 170.812 40.944 170.452C41.0339 170.093 40.5544 169.104 39.8053 168.924C37.9774 168.505 37.2284 169.404 35.6103 169.823C35.3255 169.868 35.0342 169.849 34.7577 169.767C34.4812 169.685 34.2263 169.544 34.0113 169.351C33.7963 169.159 33.6265 168.922 33.5144 168.656C33.4023 168.391 33.3506 168.104 33.363 167.815C33.363 166.737 34.4715 166.018 35.2806 165.418C37.498 163.83 41.7531 162.721 42.8918 159.965C43.7308 157.867 40.8541 157.687 39.5057 157.867C36.8241 158.254 34.241 159.149 31.8947 160.504C30.4679 161.481 29.2208 162.698 28.2089 164.1C27.9011 164.564 27.4995 164.959 27.0298 165.258C26.5602 165.557 26.0329 165.755 25.4822 165.838C25.2125 165.838 24.2236 165.838 24.0738 165.448C23.9239 165.059 24.5832 164.549 24.6731 164.34C26.0814 161.343 22.0962 161.343 20.2683 161.853C19.1896 162.122 16.9722 163.141 15.9834 162.152C14.5451 160.714 17.1819 159.485 18.1408 159.006C20.478 157.837 24.1337 156.609 24.8829 153.732C26.0515 149.477 19.0996 150.106 16.8223 150.526C14.545 150.945 12.7771 151.814 10.8293 152.354C9.69575 152.758 8.4571 152.758 7.32351 152.354C6.03502 151.724 5.6454 150.526 6.87396 149.537C8.10252 148.548 6.33462 147.739 5.40571 148.069C1.18067 149.926 1.48032 154.152 5.40571 155.53ZM34.0521 250.758C35.0409 249.799 35.8499 248.631 36.8088 247.762C37.2544 247.287 37.7697 246.883 38.3371 246.563C38.1594 247.09 37.939 247.601 37.6779 248.091C37.0552 249.043 36.2255 249.842 35.2508 250.429C34.6814 250.758 34.082 251.088 33.4528 251.387L34.0521 250.758ZM42.3524 221.992C43.9257 220.907 45.6818 220.116 47.5363 219.655C47.8299 219.573 48.1311 219.523 48.4352 219.505C48.9446 220.374 47.836 221.992 47.3865 222.501C45.7089 224.569 43.5186 226.16 41.034 227.116L38.0375 228.255C39.5956 226.187 40.2248 223.58 42.4122 221.992H42.3524Z" fill="#88A956"/>
<path d="M45.2588 119.631C45.2588 119.69 45.2294 119.66 45.2588 119.631Z" fill="#88A956"/>
<path d="M1.06205 139.199C1.34877 139.526 1.68199 139.808 2.05094 140.038H2.23072C1.92645 140.227 1.63612 140.437 1.36181 140.667C1.07375 140.922 0.821719 141.214 0.612685 141.536C0.436673 141.759 0.304479 142.013 0.223127 142.285C0.0760605 142.616 0 142.973 0 143.334C0 143.696 0.0760605 144.053 0.223127 144.383C0.630481 145.05 1.19665 145.606 1.87116 146.001L2.05094 146.211C2.70427 146.816 3.4058 147.367 4.14851 147.859C4.32728 147.988 4.5421 148.058 4.76266 148.058C4.98322 148.058 5.19822 147.988 5.37699 147.859C5.70661 147.559 5.37697 147.17 5.16722 146.96L4.77766 146.69C4.23829 145.821 3.33935 144.952 3.27942 144.053C3.27942 142.525 6.27589 142.735 7.2048 141.656C8.70305 139.828 6.90526 138.45 5.43698 137.671C4.92758 137.401 4.29821 137.431 4.20832 136.652C4.2986 135.978 4.61577 135.354 5.10741 134.884C6.03632 134.105 6.57565 135.034 7.50456 135.304C8.18151 135.574 8.93034 135.605 9.62756 135.393C10.3248 135.18 10.9287 134.737 11.34 134.135C12.0292 132.607 10.5909 129.161 13.8271 130.03C14.5762 130.21 15.0557 130.719 15.8947 130.779C16.7951 130.869 17.698 130.635 18.4416 130.12C19.1698 129.622 19.692 128.877 19.9101 128.022C20.5752 128.584 21.3104 129.058 22.0974 129.431C22.5612 129.652 23.067 129.771 23.5807 129.78C24.0944 129.789 24.6039 129.688 25.0753 129.483C25.5466 129.279 25.9687 128.976 26.3131 128.595C26.6574 128.213 26.916 127.763 27.0715 127.273C27.491 125.895 27.0715 124.756 27.0715 123.468C27.3712 121.37 29.5587 124.247 30.5175 124.666C31.0314 124.878 31.5892 124.962 32.1427 124.91C32.6962 124.858 33.2287 124.671 33.6938 124.366C34.283 123.881 34.9954 123.567 35.7517 123.462C36.508 123.356 37.2788 123.462 37.9788 123.767C39.4171 124.426 40.2561 125.295 41.9341 125.295C43.176 125.308 44.376 124.847 45.2902 124.007C46.3989 123.198 46.6986 123.857 47.4478 124.816C48.0002 125.698 48.7112 126.47 49.5451 127.093C50.6567 127.585 51.898 127.701 53.0817 127.426C54.2654 127.15 55.3273 126.497 56.1075 125.565C56.4784 125.286 56.7849 124.93 57.006 124.521C57.2271 124.113 57.3577 123.662 57.389 123.198C57.4202 122.735 57.3515 122.27 57.1872 121.836C57.023 121.402 56.7672 121.008 56.4372 120.681C55.6881 119.722 52.7814 116.246 55.4183 116.096C56.0408 116.041 56.668 116.125 57.2538 116.342C57.8396 116.56 58.3694 116.906 58.8044 117.355C59.7033 118.433 59.7333 120.111 60.842 121.1C62.8796 122.958 65.6962 121.1 67.9136 120.711C69.2021 120.711 71.4795 120.231 71.959 121.61C72.4384 122.988 72.3485 124.097 73.607 124.876C74.8655 125.655 76.0941 124.876 77.2028 126.374C78.1893 127.928 78.7379 129.719 78.7909 131.558C79.2705 133.187 79.8408 134.787 80.4989 136.352C80.9783 138 80.8585 139.738 81.4278 141.387C82.0517 143.026 83.1417 144.447 84.5633 145.475C85.9849 146.502 87.676 147.092 89.4284 147.17C88.3253 147.796 87.1473 148.279 85.9225 148.608C84.6427 149.015 83.329 149.305 81.9971 149.477C81.8427 149.371 81.6599 149.315 81.4728 149.315C81.2856 149.315 81.1029 149.371 80.9484 149.477C79.5815 149.567 78.2102 149.567 76.8433 149.477C76.7813 149.249 76.644 149.048 76.4537 148.908L76.0342 148.548L75.6446 148.219L75.3748 147.979C74.9701 147.832 74.6093 147.584 74.3261 147.26C74.0884 146.954 73.9059 146.609 73.7868 146.241C73.7868 146.061 73.4273 146.241 73.4572 146.241C73.511 146.641 73.6115 147.033 73.7568 147.409C73.7568 147.739 73.9965 148.069 74.1464 148.398C74.3328 148.72 74.5649 149.013 74.8355 149.267H73.517C65.746 148.199 58.0851 146.444 50.624 144.023C47.3623 142.927 44.0408 142.016 40.6757 141.297C40.7057 141.199 40.7057 141.095 40.6757 140.997C40.2562 140.548 39.6268 140.338 39.2672 139.798C38.9172 139.253 38.6543 138.657 38.4881 138.031C38.1285 136.862 37.9189 135.603 37.4394 134.435C36.3906 131.888 34.8624 128.651 31.9558 127.872C31.5962 127.872 31.3566 128.472 31.6562 128.652C32.8846 129.578 33.9053 130.752 34.6527 132.097C35.4678 133.283 36.1415 134.561 36.6603 135.903C37.0498 137.042 37.2895 138.24 37.769 139.379C37.9797 139.917 38.2512 140.43 38.5781 140.907C36.7048 140.571 34.814 140.341 32.9147 140.218C27.2813 139.918 20.7191 139.798 15.9847 143.214C15.685 143.394 15.9846 143.694 16.3142 143.604C19.3952 142.669 22.5265 141.908 25.6932 141.327C29.2638 140.887 32.8801 140.988 36.4205 141.626C40.2325 142.297 43.9962 143.218 47.6873 144.383C43.702 147.38 38.6979 148.129 34.2631 150.376C32.3354 151.447 30.5865 152.812 29.0793 154.421C27.6213 155.632 26.5745 157.265 26.0828 159.096C26.0828 159.695 26.9516 159.425 27.0415 159.096C27.8451 157.228 29.1268 155.606 30.7573 154.391C32.413 152.782 34.3147 151.447 36.3907 150.436C40.4959 148.428 45.1704 147.439 48.916 144.803C51.5829 145.612 54.2497 146.451 56.9466 147.2C64.2513 149.593 71.9166 150.698 79.6 150.466C75.8041 153.087 71.5267 154.93 67.0147 155.89C64.198 156.699 61.2913 157.088 58.5046 157.957C55.8513 159.042 53.2693 160.293 50.7738 161.703C50.5041 161.703 50.7738 162.122 50.7738 162.002C53.5905 160.954 56.1975 159.395 59.0441 158.437C61.8908 157.478 65.0371 156.938 68.0336 156.159C72.8917 155.25 77.4629 153.196 81.3678 150.166C86.282 149.687 93.0242 148.548 94.942 143.694C95.8634 141.85 96.6641 139.948 97.3391 138.001C98.3579 135.663 99.3168 133.266 100.336 130.899C102.325 126.061 104.586 121.339 107.108 116.755C111.632 108.335 115.648 99.6455 119.513 90.8958C120.827 88.9121 122.037 86.8618 123.139 84.753C125.031 82.3208 126.352 79.4944 127.004 76.4827C127.035 76.2816 126.999 76.0758 126.902 75.8972C126.804 75.7185 126.651 75.5768 126.465 75.4938L125.896 75.344C126.225 74.9844 126.195 74.4751 125.416 74.2353C121.551 72.9768 117.026 75.7036 113.25 77.2318H112.801C110.913 77.4416 108.966 75.5238 107.707 74.2353C106.448 72.9468 104.98 71.3887 103.512 70.1002C99.5172 66.3237 96.0321 62.0426 93.1441 57.3651C93.1441 57.1853 92.6945 57.3651 92.7844 57.6048C94.1628 60.2717 95.4813 62.9985 97.1293 65.5455C98.7645 67.7939 100.611 69.8809 102.643 71.7782C104.201 73.3364 105.639 74.9545 107.347 76.3628C108.236 77.1524 109.248 77.7902 110.344 78.2506C103.872 80.468 97.3391 82.3258 90.9866 84.8728C84.0647 87.6596 77.1429 90.5063 70.251 93.3529L69.5916 93.6226C68.8695 93.6061 68.1491 93.546 67.4343 93.4428C66.4166 93.1855 65.4158 92.8652 64.4378 92.4839C61.8901 91.3248 59.4782 89.8878 57.2461 88.199C55.0181 86.6516 53.0032 84.818 51.2532 82.7453C49.9896 80.8758 48.2238 79.4008 46.1591 78.4903C45.8295 78.4903 45.41 78.7601 45.8295 78.9398C48.3466 80.0485 49.8149 83.0151 51.8225 84.9328C53.8633 86.8871 56.0689 88.6616 58.4148 90.2366C60.3796 91.7275 62.5239 92.9658 64.7973 93.9223C65.3966 94.162 66.2057 94.4616 67.0447 94.7313C64.8273 95.6003 62.6099 96.4093 60.3326 97.0685C56.9466 98.0274 53.5306 98.8664 50.2045 100.065C46.3989 101.324 42.8031 103.062 39.0874 104.68C35.3718 106.298 32.8249 107.976 29.6186 109.504C29.349 109.504 29.6185 109.894 29.8882 109.834C32.8847 108.665 35.6416 107.017 38.6381 105.968C41.6346 104.919 44.8107 103.811 47.8671 102.702C47.5974 103.121 47.3279 103.481 47.0582 103.841C46.0993 105.159 45.2303 106.507 44.3913 107.916C42.5934 110.912 40.9453 113.909 38.9377 116.905C38.6979 117.235 38.9376 117.684 39.2972 117.325C41.3552 114.785 43.1994 112.079 44.8108 109.234C45.6798 107.796 46.5787 106.238 47.5675 105.039L49.0658 103.151L50.1145 102.073C55.7778 100.155 61.621 98.6867 67.1945 96.5292C70.191 95.3006 73.4271 94.0421 76.5135 92.7536L74.9853 95.0309C73.6369 96.9487 72.3784 98.9263 71.0899 100.874C69.8715 102.701 68.8662 104.662 68.0934 106.717C67.5669 108.88 66.9167 111.011 66.1458 113.1C65.9061 113.579 66.5352 113.609 66.7449 113.28C67.611 111.551 68.3133 109.745 68.8425 107.886C69.5996 105.776 70.6055 103.764 71.839 101.893L75.4348 96.4393C76.0685 95.3962 76.7692 94.3952 77.5324 93.4428C78.0418 92.8435 78.701 92.3042 79.2104 91.6749C88.0882 87.805 97.1712 84.4239 106.419 81.5468L107.677 81.1872C107.943 83.2325 107.621 85.3115 106.748 87.1802C105.859 90.3529 104.517 93.3806 102.763 96.1696C99.976 100.694 96.2604 104.74 94.942 109.983C94.942 110.283 95.2416 110.133 95.3315 109.983C98.0883 104.5 102.044 99.7354 104.83 94.2818C106.058 91.647 107.139 88.946 108.067 86.1913C108.954 84.4711 109.387 82.5526 109.325 80.6179C111.793 79.932 114.215 79.0913 116.576 78.1008C118.636 76.9074 120.871 76.0478 123.199 75.5538C122.27 75.8534 121.461 76.2429 120.562 76.6325C120.367 76.7405 120.203 76.8949 120.083 77.0819C119.383 77.3294 118.726 77.6832 118.135 78.1307C116.426 79.3754 115.224 81.1948 114.749 83.2548C114.527 84.9931 114.67 86.7586 115.168 88.4386C115.348 89.3376 115.558 90.2066 115.678 91.1056C115.705 91.79 115.868 92.4622 116.157 93.0833C113.61 98.417 110.913 103.631 108.156 108.845C108.098 108.585 108.008 108.333 107.887 108.096C107.671 107.794 107.394 107.543 107.073 107.357C106.752 107.172 106.396 107.057 106.027 107.02C105.659 106.983 105.286 107.025 104.935 107.144C104.584 107.262 104.263 107.454 103.991 107.706C102.951 108.872 102.357 110.369 102.313 111.931C102.313 113.19 102.583 114.418 102.583 115.647C102.568 116.282 102.446 116.91 102.223 117.505C102.182 117.618 102.132 117.728 102.074 117.834C101.384 116.246 99.5565 114.688 97.8485 115.886C97.2954 116.343 96.8805 116.945 96.65 117.624C96.4846 118.025 96.2945 118.416 96.0806 118.793C96.0806 118.973 95.6312 119.273 95.5713 119.482C94.9954 118.907 94.2467 118.537 93.4401 118.429C92.6335 118.321 91.8135 118.48 91.1064 118.883C90.537 119.213 89.9678 120.052 89.3685 120.291C89.3477 120.223 89.3477 120.15 89.3685 120.082C89.3685 119.752 89.0988 119.722 89.0688 119.362C89.0388 119.003 89.3385 118.433 89.2786 117.954C89.2786 116.965 88.3198 116.066 88.4396 114.958C88.72 113.967 89.1549 113.026 89.7281 112.171C90.4473 110.583 90.5372 108.815 88.6494 108.036C87.817 107.832 86.9442 107.865 86.1292 108.129C85.3142 108.394 84.5889 108.88 84.0347 109.534L83.7351 109.774C83.2335 108.748 82.977 107.619 82.986 106.478C82.986 104.919 84.3344 104.44 85.533 103.811C86.8484 103.2 88.12 102.499 89.3386 101.713C91.2284 100.397 92.754 98.624 93.7733 96.5591C93.9987 96.1549 94.1412 95.7099 94.1923 95.25C94.2434 94.79 94.202 94.3246 94.0709 93.8808C93.9397 93.4371 93.7213 93.0239 93.4284 92.6657C93.1354 92.3075 92.7739 92.0113 92.365 91.7947C91.5681 91.4205 90.6983 91.2265 89.8179 91.2265C88.9375 91.2265 88.0679 91.4205 87.271 91.7947C83.1901 93.8137 79.877 97.1058 77.832 101.174C76.2131 103.741 75.1892 106.639 74.8355 109.654C74.5958 112.86 75.3149 115.946 72.7979 118.074C71.878 117.841 70.9296 117.74 69.9812 117.774C68.682 117.699 67.3789 117.82 66.1158 118.134C65.5058 118.424 64.8613 118.635 64.198 118.763C63.359 118.763 63.4489 118.433 63.0893 117.594C62.6941 116.456 61.9928 115.448 61.0625 114.681C60.1322 113.915 59.0088 113.42 57.8155 113.25C56.6449 112.894 55.4 112.863 54.2129 113.158C53.0258 113.454 51.9408 114.065 51.0734 114.928C49.6051 116.875 50.8337 119.302 52.2421 120.921C52.7215 121.46 53.7703 122.209 53.9501 122.928C54.1299 123.647 52.6914 125.355 51.7625 125.265C50.8336 125.176 50.2644 123.707 49.8449 123.198C49.3235 122.44 48.6238 121.823 47.8073 121.4C47.9256 121.018 48.0156 120.627 48.0769 120.231C48.2584 119.428 48.1413 118.587 47.7473 117.864C47.0282 116.785 45.5598 116.905 44.4811 117.175C43.2481 117.53 42.1842 118.317 41.4846 119.392C40.9662 120.226 40.582 121.136 40.3459 122.089C39.108 121.29 37.676 120.843 36.2033 120.795C34.7305 120.748 33.2726 121.102 31.9858 121.82C31.8707 121.579 31.7076 121.365 31.5064 121.19C31.3034 120.97 31.0714 120.779 30.8171 120.621C31.1467 119.422 32.645 118.943 33.6638 117.924C34.6826 116.905 35.3119 115.527 34.2332 114.388C32.0757 112.111 27.7008 114.059 26.0228 115.886C25.6301 116.41 25.1543 116.865 24.6144 117.235C25.0039 117.025 23.8353 118.943 24.6144 117.085C24.914 116.306 25.5733 115.647 25.2437 114.778C24.6744 113.369 21.3184 113.819 21.1685 112.92C21.0187 112.021 24.7943 111.152 24.5246 109.234C24.3148 107.796 22.9665 107.646 22.1574 106.807C20.809 105.429 22.6668 104.5 23.9852 104.53C25.0848 104.679 26.1751 104.889 27.2513 105.159C28.001 105.321 28.7774 105.314 29.5239 105.137C30.2704 104.961 30.9681 104.62 31.5662 104.14C31.8233 103.817 32.011 103.445 32.1175 103.047C32.2239 102.648 32.2468 102.232 32.185 101.824C32.1231 101.416 31.9776 101.025 31.7577 100.676C31.5378 100.327 31.2483 100.027 30.9071 99.7953C30.2135 99.249 29.4035 98.8697 28.5398 98.6867C27.7906 98.5368 25.0639 98.8964 24.6444 98.387C24.2249 97.8776 26.0826 97.9075 26.2924 97.9075C27.0553 97.951 27.8147 97.7741 28.48 97.3981C29.8883 96.4093 29.4987 95.1508 29.3189 93.7425C29.3189 93.1132 29.3189 91.9146 30.2478 91.9446C31.1767 91.9745 31.7161 93.1731 32.1356 93.5926C32.8966 94.5437 33.9497 95.2177 35.1321 95.5104C35.924 95.6078 36.7277 95.5047 37.4694 95.2107C38.2185 94.9111 38.8478 94.132 39.537 93.9223C40.383 93.8351 41.2373 93.9586 42.0239 94.2818C43.069 94.5622 44.1484 94.6933 45.2302 94.6714C46.0136 94.6937 46.7915 94.5349 47.5035 94.2075C48.2156 93.8801 48.8424 93.3928 49.3354 92.7836C50.7737 90.3864 47.1779 88.4387 45.44 87.7195C42.9748 86.9022 40.3344 86.7676 37.799 87.33C37.2913 87.3892 36.7784 87.3892 36.2707 87.33H35.9712C35.9774 87.2802 35.9774 87.2299 35.9712 87.1802C35.9712 85.8318 38.0987 85.7418 38.4583 84.4234C38.8179 83.1049 36.9001 81.6666 35.7914 81.1272C34.6827 80.5878 33.6339 80.5879 33.1545 79.5991C32.9747 79.2695 32.9746 78.3405 32.9147 78.4004C33.4241 78.0109 35.4317 78.6402 35.9112 78.7301C36.9583 79.011 38.034 79.1718 39.1174 79.2095C42.1139 79.2095 42.114 76.4527 40.8555 74.5649L41.4248 74.8047C41.9439 75.0544 42.5008 75.2165 43.0728 75.2841C43.6027 75.3605 44.1433 75.2755 44.6243 75.0403C45.1053 74.8052 45.5043 74.4307 45.7695 73.9657C46.3089 72.5873 43.6422 68.9615 45.3802 68.3023C46.369 67.9127 47.3578 69.5009 48.1669 69.8605C48.7062 70.1222 49.3115 70.2161 49.9047 70.1302C50.4346 70.0433 50.9314 69.8156 51.3431 69.4709C51.5229 69.4709 51.6727 68.9615 51.8525 68.8416C52.0323 68.7217 51.8524 68.482 52.3319 69.2312C52.8113 69.9803 53.5306 70.8793 53.9501 71.8082C54.3696 72.7371 54.6692 73.3663 55.0888 74.1155C55.4854 74.903 56.0508 75.5933 56.7448 76.1371C57.4389 76.681 58.2444 77.0651 59.1039 77.2618C62.9694 78.0409 65.097 74.6848 62.52 71.6883C61.1416 70.1002 59.1939 69.9204 57.6357 68.6918C56.9822 68.1699 56.459 67.5031 56.1075 66.7441C55.8078 65.965 55.688 64.9462 57.2461 65.2159C57.7238 65.4305 58.1846 65.6809 58.6246 65.965C59.2668 66.3356 60.0235 66.4549 60.7485 66.3C61.4735 66.145 62.1154 65.7267 62.55 65.126C62.7122 64.8772 62.8336 64.6041 62.9095 64.317L63.0893 64.6166C63.2888 64.9664 63.5786 65.2562 63.9284 65.4557C65.4866 66.4745 66.9248 65.4556 68.3032 65.2459C69.0823 65.2459 69.1122 65.2459 69.4119 66.1149C69.5022 66.771 69.5022 67.4364 69.4119 68.0925C69.5226 69.2085 69.7743 70.306 70.161 71.3587C71.0163 75.0242 73.22 78.2335 76.3337 80.3482C77.7204 81.2327 79.3887 81.5642 81.0082 81.2771C83.1957 80.7977 83.765 79.0596 85.1434 77.5614C86.5218 76.0631 89.2186 77.2917 91.1364 77.1119C91.9606 77.1146 92.7706 76.8964 93.4819 76.4801C94.1933 76.0638 94.7803 75.4646 95.1817 74.7447C96.7099 70.8792 90.8967 67.4932 88.0201 66.5942C84.9958 66.0351 82.1314 64.8179 79.63 63.0285C80.3615 63.3852 81.1869 63.5018 81.9885 63.3619C82.7902 63.222 83.5272 62.8327 84.0947 62.2494C84.5142 61.6501 84.3943 59.4926 83.7051 59.2529C84.2445 59.2529 85.1135 59.8222 85.4432 59.8821C86.4567 60.1097 87.518 59.9717 88.4396 59.4926C92.7246 57.2153 87.271 53.6495 85.0536 52.5408C83.5554 51.8216 81.6076 51.0126 81.218 49.2147C81.0404 48.802 80.9942 48.3446 81.0856 47.9048C81.177 47.4649 81.4018 47.0639 81.7292 46.7562C82.0565 46.4484 82.4706 46.249 82.9152 46.1849C83.3599 46.1208 83.8136 46.1952 84.2145 46.398C87.211 47.3868 86.9414 52.6307 91.0466 52.0014C91.4028 51.9731 91.7493 51.871 92.064 51.7016C92.3787 51.5322 92.6548 51.2992 92.8746 51.0174C93.0944 50.7356 93.2531 50.4112 93.3408 50.0647C93.4284 49.7183 93.443 49.3574 93.3837 49.0049C93.3748 48.5383 93.3042 48.0748 93.174 47.6265V47.207H92.5748C93.425 47.1937 94.2624 46.9996 95.0318 46.6377C96.2903 46.0684 96.59 46.0983 97.6687 47.1471C98.4029 47.8098 98.9243 48.6753 99.1669 49.6342C99.5864 51.2523 99.1669 53.1401 99.9161 54.6683C100.28 55.3303 100.857 55.8502 101.553 56.1439C102.249 56.4375 103.024 56.4877 103.752 56.2864C104.411 56.2864 104.86 55.6571 105.46 55.4773C106.042 55.3917 106.637 55.4796 107.17 55.7301C107.703 55.9805 108.15 56.3825 108.456 56.8857C109.258 58.8752 109.322 61.0859 108.636 63.1184C108.163 64.9137 107.793 66.7345 107.527 68.5719C107.352 69.3978 107.365 70.2526 107.564 71.073C107.764 71.8933 108.145 72.6583 108.681 73.3114C109.216 73.9644 109.891 74.4888 110.656 74.8458C111.421 75.2029 112.256 75.3834 113.101 75.374C115.022 75.3159 116.914 74.8886 118.674 74.1155L125.446 71.4785C128.954 70.2929 131.996 68.0271 134.136 65.0061C135.747 63.2924 137.173 61.4143 138.391 59.4027C140.279 56.4062 141.927 52.9303 143.575 49.6641C146.961 42.922 150.467 36.2099 154.123 29.6177C157.778 23.0254 160.835 16.1335 164.97 9.99069C165.599 9.06178 167.757 5.52593 169.165 5.49597C170.33 5.77825 171.377 6.41729 172.161 7.32383C172.731 8.37259 171.922 9.99068 171.622 11.0095C171.322 12.0283 172.821 11.9684 173.3 11.2193C174.641 9.41812 175.46 7.28241 175.667 5.04647C175.654 3.87195 175.235 2.73824 174.481 1.83724C173.727 0.936229 172.686 0.323309 171.532 0.102286C166.408 -0.946483 163.801 6.33499 162.183 9.81091C160.775 12.8074 159.546 15.8039 158.168 18.8004C156.789 21.7969 154.991 24.7933 153.343 27.9696C150.049 34.4108 146.397 40.6632 142.406 46.6976C139.23 51.2523 135.215 67.673 119.333 71.0291C117.445 71.8018 115.502 72.4328 113.52 72.9169C110.524 73.0967 110.224 69.9204 110.524 67.8528C110.823 64.2271 113.191 60.6313 112.052 56.9157C111.213 54.099 106.059 50.9227 103.422 53.3798C103.321 53.2135 103.25 53.031 103.212 52.8404C103.212 52.0014 103.212 51.0725 103.033 50.2035C102.892 48.4855 102.149 46.8723 100.935 45.6488C100.331 44.8998 99.5553 44.3073 98.6739 43.9214C97.7924 43.5354 96.831 43.3674 95.8709 43.4315C95.044 43.6105 94.24 43.8819 93.4737 44.2405C92.6505 44.3443 91.8446 44.5559 91.0766 44.8698C90.6841 45.1126 90.3669 45.4598 90.1605 45.8726C89.9541 46.2853 89.8667 46.7474 89.9079 47.207C89.6339 46.6672 89.3236 46.1466 88.979 45.6488C87.8855 44.4584 86.4323 43.6588 84.8414 43.372C83.2506 43.0852 81.6097 43.3271 80.1693 44.0607C79.46 44.4983 78.8696 45.1041 78.4505 45.8246C78.0315 46.545 77.7967 47.3577 77.767 48.1906C77.7374 49.0235 77.9138 49.8509 78.2806 50.5993C78.6474 51.3477 79.1931 51.994 79.8696 52.4808C81.1253 53.4186 82.4823 54.2126 83.9149 54.8481C84.5442 55.1477 86.3421 55.9268 86.4021 56.7658H86.0723C85.6128 56.5945 85.1424 56.4543 84.664 56.3463C83.8859 56.1597 83.0688 56.2211 82.3272 56.522C81.5857 56.8229 80.9569 57.3482 80.5289 58.0243C80.3208 58.4414 80.2576 58.9158 80.3491 59.3728C77.9519 58.4139 74.0565 59.7323 75.0753 62.609C75.9143 64.9762 79.2105 66.6542 81.338 67.5831C83.4655 68.512 85.0535 68.542 86.8514 69.1413C88.1079 69.5667 89.2614 70.2507 90.2375 71.149C90.6869 71.6284 92.2751 73.1865 91.5859 73.9956C90.8967 74.8046 87.7804 73.8457 86.5818 73.9956C85.5029 74.0512 84.4565 74.3837 83.5433 74.961C82.6301 75.5383 81.8808 76.3409 81.3678 77.2917C80.8584 78.0708 80.5288 78.79 79.54 78.6402C78.5962 78.3064 77.7584 77.7272 77.1128 76.9621C75.7499 75.5294 74.726 73.8091 74.1164 71.928C73.6076 70.6962 73.2456 69.4089 73.0377 68.0925C73.0036 67.1958 72.8934 66.3037 72.7081 65.4257C72.515 64.5248 72.0015 63.7245 71.2631 63.1735C70.5247 62.6224 69.6114 62.3579 68.6927 62.4292C67.9012 62.4634 67.1299 62.6897 66.4454 63.0884L65.936 63.2682C66.1458 63.6577 66.1158 63.6877 65.936 63.2682C65.7562 62.8487 65.6364 62.8487 65.5465 62.7288C64.9948 62.0961 64.2624 61.6477 63.448 61.4441C62.6336 61.2405 61.7763 61.2915 60.9917 61.5902C60.511 61.8526 60.1393 62.2774 59.943 62.7887C59.8557 63.0942 59.7857 63.4043 59.7333 63.7176L59.1939 63.418C58.4811 63.0202 57.6645 62.8474 56.8516 62.9223C56.0387 62.9971 55.2674 63.3162 54.6392 63.8375C52.272 66.025 55.2086 69.3511 56.7668 71.0591C57.402 71.7342 58.0828 72.365 58.8044 72.9469C59.4037 73.4263 60.9617 75.5238 59.0739 74.535C57.1862 73.5462 56.4371 71.2089 55.4183 69.6207C55.0534 68.9363 54.5553 68.3319 53.9532 67.843C53.3511 67.3541 52.6572 66.9907 51.9125 66.7741C51.4453 66.6984 50.9661 66.7609 50.534 66.9539C50.2044 67.1337 49.7849 68.0326 49.5451 68.0925C49.3054 68.1524 48.017 66.9838 47.5376 66.7141C46.9097 66.3586 46.1888 66.2019 45.47 66.2647C44.8586 66.2988 44.2652 66.4836 43.7424 66.8025C43.2196 67.1214 42.7837 67.5645 42.4735 68.0925C42.2016 69.0335 42.2652 70.0398 42.6533 70.9392C42.8643 71.4472 43.0444 71.9675 43.1926 72.4973C43.2497 72.7235 43.2497 72.9604 43.1926 73.1865C41.8742 72.7071 40.8854 71.6884 39.3572 72.018C39.0662 72.0635 38.7878 72.1688 38.5397 72.3275C38.2916 72.4862 38.079 72.6947 37.9157 72.9397C37.7523 73.1848 37.6417 73.4612 37.5907 73.7512C37.5396 74.0413 37.5493 74.3388 37.6192 74.6249C37.7885 75.2329 38.0735 75.8026 38.4583 76.3029C38.5413 76.4425 38.6019 76.5941 38.6381 76.7524C37.4695 76.6025 36.3007 76.183 35.1321 76.0033C33.0945 75.6736 29.8283 75.5837 29.3789 78.2506C29.283 78.9895 29.3916 79.7406 29.6927 80.4221C29.9938 81.1036 30.476 81.6895 31.0869 82.1161C31.8287 82.54 32.5998 82.9105 33.3942 83.2248C33.7538 83.4046 34.0535 83.7941 34.3231 83.854L33.6638 84.1837C31.1468 86.0415 31.4464 89.2178 34.5327 90.1767C35.9208 90.4166 37.3398 90.4166 38.7279 90.1767C39.4171 90.1767 40.0762 89.9968 40.7355 89.9069C41.3947 89.817 42.1438 89.7272 41.8442 89.6972C42.9704 89.8331 44.0487 90.2335 44.9906 90.8658C45.2303 91.0456 45.8295 91.4951 45.7995 91.6449C45.7696 91.7947 43.4024 91.6449 42.8031 91.6449C41.1167 91.0461 39.2756 91.0461 37.5892 91.6449C37.0199 91.9446 36.6603 92.4839 36.121 92.8135C35.5816 93.1431 35.0422 93.0832 34.2332 92.424C33.3992 91.4224 32.3823 90.5885 31.2367 89.9669C30.521 89.7577 29.763 89.7388 29.0378 89.9122C28.3125 90.0856 27.6451 90.4453 27.1015 90.9557C26.6164 91.3486 26.266 91.8832 26.0994 92.4849C25.9329 93.0866 25.9585 93.7253 26.1726 94.3117C26.1939 94.7043 26.2853 95.09 26.4424 95.4504C26.0831 95.4716 25.7228 95.4716 25.3635 95.4504C24.5503 95.3961 23.7347 95.5083 22.9663 95.7801C21.7078 96.2895 20.4194 97.518 21.1685 98.9563C21.9176 100.395 24.165 100.754 25.5135 100.844C26.279 100.777 27.0502 100.848 27.7906 101.054C28.6596 101.413 29.6485 102.582 28.0604 102.972C27.1611 102.958 26.2701 102.796 25.4235 102.492C23.6113 102.127 21.7279 102.458 20.1496 103.421C19.5766 103.799 19.1509 104.363 18.9437 105.017C18.7364 105.672 18.7601 106.378 19.011 107.017C19.4604 107.946 22.1574 108.785 21.7679 109.744C21.1686 111.212 17.4829 111.212 18.4118 113.549C18.724 114.066 19.1689 114.491 19.7003 114.778C20.2097 115.107 21.1685 115.227 21.5581 115.557L21.7679 115.257L21.3783 115.946C21.3007 116.161 21.2406 116.381 21.1985 116.606C21.1545 117.073 21.221 117.545 21.3928 117.982C21.5645 118.419 21.8366 118.81 22.1872 119.123C26.0227 122.119 28.1802 114.418 31.5362 115.317C33.9035 115.946 30.1579 118.314 29.6784 119.093C29.5393 119.354 29.4481 119.638 29.4089 119.932C28.7033 119.695 27.9513 119.631 27.216 119.746C26.4807 119.861 25.7836 120.151 25.1837 120.591C24.621 120.957 24.1662 121.467 23.866 122.067C23.5658 122.668 23.4312 123.337 23.4759 124.007C23.4759 124.337 23.4759 124.666 23.4759 124.996C23.4437 125.33 23.3834 125.661 23.2959 125.985C22.6298 125.453 21.9179 124.982 21.1685 124.576C20.2672 124.038 19.2159 123.807 18.172 123.917C17.363 123.917 16.4641 124.846 16.9136 125.685C17.363 126.524 17.8125 127.663 16.6738 127.842C16.4341 127.842 15.8048 127.423 15.5351 127.303C14.5552 127.028 13.5185 127.028 12.5386 127.303C11.5868 127.449 10.684 127.822 9.90684 128.39C9.12965 128.959 8.50096 129.706 8.0739 130.569C7.87968 131.356 7.87968 132.179 8.0739 132.966C8.0739 133.476 8.88294 133.626 7.68434 133.206C7.35473 133.206 7.08503 132.936 6.72545 132.847C5.95955 132.691 5.1663 132.739 4.42486 132.986C3.68343 133.233 3.01986 133.671 2.50048 134.255C1.30189 135.274 -0.136546 137.491 1.06205 139.199ZM117.655 83.9439C117.741 82.3579 118.452 80.8706 119.633 79.8088L120.981 78.6102C121.601 78.6086 122.216 78.5178 122.809 78.3405C123.313 78.1782 123.838 78.0874 124.367 78.0708C122.653 81.7783 120.649 85.3451 118.374 88.7383C117.95 87.1734 117.709 85.5645 117.655 83.9439ZM105.669 109.624C105.681 109.554 105.681 109.483 105.669 109.414C105.669 109.834 105.909 110.313 105.969 110.673C106.027 111.31 106.138 111.941 106.299 112.56C105.939 113.22 105.579 113.879 105.25 114.538C104.864 112.904 104.979 111.192 105.579 109.624H105.669ZM77.6822 106.897C78.8889 102.437 81.4168 98.4468 84.9336 95.4504C86.0423 94.5814 88.1699 92.8435 89.7281 93.203C92.0054 93.7124 89.9677 96.5591 89.2186 97.518C87.4526 99.4159 85.2812 100.891 82.866 101.833C80.7685 102.912 78.7011 104.35 79.0606 107.017C79.0948 108.07 79.3656 109.101 79.8533 110.035C80.3409 110.969 81.0328 111.781 81.8773 112.411C82.6335 112.752 83.4825 112.828 84.2873 112.627C85.0921 112.426 85.8055 111.959 86.3121 111.302C86.5566 111.027 86.8167 110.767 87.0912 110.523C87.1091 110.672 87.1091 110.823 87.0912 110.972C86.9895 111.412 86.8281 111.835 86.6117 112.231C86.1908 113.014 85.8496 113.837 85.5929 114.688C85.4783 115.644 85.6782 116.612 86.1623 117.445C86.3865 117.899 86.4701 118.411 86.4021 118.913C86.3281 119.249 86.3281 119.596 86.4021 119.932C86.52 120.389 86.7442 120.812 87.0566 121.166C87.3691 121.52 87.7608 121.795 88.1999 121.969C89.818 122.778 91.1964 121.969 92.365 120.891C93.0243 120.381 92.9043 120.381 93.5335 120.891C94.1465 121.419 94.914 121.734 95.7211 121.79C97.6089 121.79 98.7174 120.022 99.3467 118.523C99.3467 118.523 99.3467 118.523 99.3467 118.763C99.7962 119.782 100.096 120.501 101.324 120.681H102.014C101.294 122.029 100.605 123.348 99.976 124.726C98.1182 128.741 96.6499 132.936 94.912 137.012C94.1329 138.839 93.5636 140.757 92.7246 142.525C92.5888 143.028 92.3407 143.493 91.9993 143.886C91.6578 144.279 91.2317 144.59 90.753 144.794C90.2743 144.999 89.7555 145.093 89.2354 145.068C88.7153 145.044 88.2076 144.902 87.7503 144.653C86.134 144.021 84.8171 142.8 84.0647 141.237C83.6126 139.566 83.292 137.863 83.1058 136.143C82.7163 134.465 81.7274 133.146 81.3978 131.348C81.3414 129.698 81.151 128.054 80.8285 126.434C80.4331 125.205 79.6296 124.148 78.5511 123.438C77.9133 123.138 77.238 122.927 76.5435 122.808C75.6446 122.569 75.6445 122.539 75.4048 121.46C75.3178 120.941 75.1875 120.429 75.0153 119.932C75.7051 119.365 76.2596 118.651 76.6381 117.842C77.0165 117.033 77.2095 116.15 77.2028 115.257C76.9409 112.466 77.0721 109.652 77.5924 106.897H77.6822ZM42.5933 121.22V121.04L43.0128 120.411L43.1926 120.201V120.052L43.4624 119.782H43.7021H44.2713H44.5711C44.5711 119.782 44.5711 119.782 44.5711 120.022C44.601 120.351 44.601 120.681 44.5711 121.01C44.5561 121.22 44.5561 121.43 44.5711 121.64H44.1515C43.6357 121.864 43.1521 122.157 42.7133 122.509C42.3284 122.82 41.8584 123.008 41.3648 123.048C41.4254 122.617 41.536 122.195 41.6944 121.79C41.774 121.637 41.889 121.506 42.0298 121.407C42.1705 121.308 42.333 121.244 42.5035 121.22H42.5933Z" fill="#88A956"/>
<path d="M134.495 69.5607C133.628 72.288 133.865 75.2463 135.154 77.8011C135.162 77.99 135.213 78.1746 135.304 78.3404C135.834 79.4522 136.694 80.3738 137.766 80.9796C138.838 81.5855 140.071 81.8463 141.297 81.7265C143.385 81.3815 145.318 80.4096 146.841 78.9398C147.654 78.19 148.572 77.564 149.567 77.0819C150.145 76.8055 150.796 76.7215 151.425 76.8422C152.504 77.1119 152.144 77.4415 152.414 78.3404C152.564 78.7236 152.791 79.0719 153.081 79.3636C153.371 79.6553 153.718 79.8842 154.1 80.036C154.482 80.1878 154.891 80.2592 155.303 80.2459C155.714 80.2325 156.118 80.1348 156.489 79.9585C157.321 79.5272 158.097 78.9937 158.797 78.3704C159.965 77.4115 159.995 77.7711 160.924 78.7899C161.105 79.0506 161.335 79.2726 161.603 79.4424C161.871 79.6123 162.17 79.7267 162.482 79.7788C163.501 79.9586 164.999 79.3293 165.958 79.7788C166.917 80.2282 166.438 81.6066 165.689 82.116C164.902 82.5295 164.03 82.7552 163.142 82.7752C161.487 82.9094 159.851 83.2105 158.257 83.6742C154.692 85.0226 154.032 89.9069 158.557 90.2665C159.511 90.3321 160.469 90.2614 161.404 90.0567C162.722 89.787 164.16 88.5884 165.329 89.5173C166.498 90.4462 166.408 90.626 167.546 90.6859C168.685 90.7458 169.794 90.2065 170.902 90.2665C172.011 90.3264 172.551 90.5661 172.491 91.5249C172.491 91.9444 171.921 92.3041 171.682 92.6037C171.353 92.9155 171.092 93.2923 170.917 93.7101C170.741 94.128 170.655 94.5777 170.663 95.0309C170.992 97.2483 173.659 97.3381 175.457 97.2482C176.449 97.0995 177.45 97.0195 178.454 97.0086C179.114 96.9928 179.762 97.1811 180.311 97.5479C180.941 98.2671 180.311 98.7165 179.982 99.3458C179.233 101.863 181.78 102.043 183.218 103.002C184.656 103.96 184.117 104.59 183.068 104.979C182.019 105.369 181.121 105.339 180.222 105.758C179.359 106.086 178.652 106.729 178.244 107.556C178.08 107.965 178.018 108.407 178.064 108.845C178.064 109.534 178.663 109.953 177.764 110.163C176.866 110.373 175.787 109.114 174.978 108.665C174.633 108.464 174.251 108.333 173.854 108.282C173.458 108.23 173.056 108.259 172.67 108.365C171.651 108.738 170.814 109.489 170.333 110.463C170.333 110.463 170.333 110.702 170.333 110.822C170.071 110.577 169.779 110.365 169.464 110.193C168.612 109.585 167.567 109.307 166.525 109.411C165.483 109.516 164.515 109.996 163.801 110.762C163.519 111.251 163.35 111.797 163.307 112.36C163.264 112.922 163.348 113.487 163.552 114.013C163.756 114.539 164.076 115.013 164.487 115.399C164.898 115.786 165.391 116.075 165.928 116.246C167.906 116.755 171.142 114.897 172.67 116.875C174.199 118.853 169.464 120.051 172.071 122.269C172.953 122.856 174.018 123.101 175.068 122.958C175.859 122.856 176.662 123.025 177.345 123.437C177.854 123.887 177.704 124.516 178.064 125.056C178.295 125.308 178.583 125.503 178.903 125.625C179.622 125.985 179.622 125.625 179.442 126.284C179.263 126.943 178.274 127.872 178.214 129.011C178.187 129.47 178.31 129.926 178.564 130.309C178.818 130.693 179.189 130.984 179.622 131.138L181.001 131.348C181.001 131.348 180.431 132.307 180.341 132.547C179.592 134.165 179.652 135.543 181.39 136.233C181.9 136.412 184.177 137.221 183.697 137.701C183.234 137.51 182.752 137.37 182.259 137.281C181.575 137.22 180.885 137.281 180.222 137.461C179.784 137.515 179.367 137.677 179.008 137.932C178.648 138.187 178.357 138.527 178.161 138.922C177.965 139.317 177.87 139.754 177.885 140.195C177.899 140.635 178.023 141.065 178.244 141.446C179.412 143.574 182.349 144.443 182.978 146.81C183.107 147.407 183.104 148.024 182.969 148.619C182.835 149.214 182.572 149.773 182.199 150.256C181.21 151.784 180.761 150.256 179.682 149.807C179.225 149.657 178.738 149.62 178.264 149.698C177.789 149.776 177.34 149.968 176.955 150.256C176.745 150.401 176.553 150.572 176.386 150.765L176.056 150.586C175.464 150.035 174.73 149.659 173.936 149.5C173.143 149.342 172.321 149.406 171.562 149.687C170.726 150.193 170.104 150.987 169.812 151.919C169.519 152.851 169.577 153.858 169.974 154.751C170.393 155.59 174.918 158.616 174.139 159.545C173.731 159.592 173.318 159.592 172.91 159.545C172.43 159.681 171.974 159.893 171.562 160.174C171.203 160.356 170.889 160.613 170.64 160.929C170.392 161.245 170.215 161.611 170.123 162.002C170.107 162.316 170.161 162.628 170.28 162.918C170.399 163.209 170.581 163.469 170.813 163.68C170.992 163.92 171.262 164.13 171.442 164.399C171.622 164.669 171.771 165.328 171.951 165.388C172.131 165.448 170.902 165.388 170.723 165.568C170.24 165.722 169.777 165.933 169.344 166.197C167.966 166.887 167.307 166.197 165.928 165.988C165.505 165.91 165.069 165.924 164.651 166.03C164.234 166.136 163.844 166.331 163.508 166.601C163.173 166.871 162.899 167.21 162.707 167.596C162.514 167.981 162.407 168.404 162.392 168.834C162.483 169.759 162.758 170.655 163.201 171.471C163.494 172.017 163.706 172.602 163.831 173.209C163.856 173.505 163.8 173.803 163.67 174.07C163.54 174.337 163.34 174.564 163.091 174.727C162.842 174.89 162.554 174.982 162.257 174.995C161.96 175.007 161.665 174.939 161.404 174.797C161.082 174.69 160.734 174.697 160.417 174.817C160.1 174.937 159.835 175.163 159.666 175.456C159.246 176.445 158.617 178.932 157.358 177.704C156.939 177.284 156.25 177.704 156.01 178.063C155.321 179.112 155.081 180.311 154.422 181.33C154.092 181.839 154.991 181.899 155.261 181.599C155.796 180.877 156.277 180.116 156.699 179.322C158.377 180.581 159.995 178.633 161.074 176.895C161.944 177.029 162.833 176.928 163.65 176.601C164.467 176.274 165.182 175.734 165.719 175.037C167.277 173.059 166.048 171.351 165.359 169.314C165.234 169.059 165.153 168.786 165.119 168.505C165.119 168.025 164.82 168.295 165.449 168.505C165.91 168.603 166.361 168.744 166.797 168.924C167.802 169.195 168.872 169.078 169.794 168.595C170.349 168.222 170.954 167.929 171.592 167.726C171.951 167.726 172.311 167.726 172.64 167.516C173.118 167.354 173.547 167.074 173.887 166.702C174.228 166.33 174.469 165.878 174.588 165.388C174.701 164.644 174.53 163.885 174.109 163.261C173.929 162.961 173.629 162.721 173.42 162.422C173.21 162.122 172.88 162.032 173.42 161.852C173.959 161.673 175.217 161.852 176.056 161.013C176.463 160.643 176.751 160.162 176.884 159.628C177.017 159.095 176.99 158.535 176.806 158.017C176.442 157.041 175.808 156.189 174.978 155.56C174.199 154.931 172.94 154.331 172.58 153.312C172.43 152.876 172.43 152.401 172.58 151.964C172.58 151.784 171.921 151.814 172.58 151.814C173.24 151.814 173.419 152.264 173.689 152.414C174.51 153.023 175.487 153.387 176.506 153.462C177.207 153.432 177.875 153.156 178.394 152.683C178.78 153.113 179.295 153.407 179.862 153.522C180.881 153.714 181.934 153.587 182.878 153.158C183.822 152.729 184.611 152.019 185.136 151.125C185.805 150.199 186.216 149.111 186.327 147.974C186.437 146.837 186.244 145.69 185.765 144.653C185.201 143.709 184.458 142.885 183.578 142.225C183.098 141.836 182.589 141.506 182.139 141.087L181.63 140.547C181.434 140.363 181.281 140.138 181.18 139.888C181.03 139.649 181.03 139.649 181.18 139.888C181.33 140.128 182.259 140.368 182.709 140.428C183.202 140.533 183.713 140.533 184.207 140.428C184.769 140.286 185.29 140.015 185.727 139.635C186.164 139.255 186.506 138.777 186.724 138.24C187.593 135.783 185.256 134.824 183.488 134.045C183.068 133.835 183.098 134.045 183.038 133.865C182.978 133.685 183.518 132.667 183.727 132.337C184.207 131.438 184.477 130.629 183.727 129.76C182.978 128.891 181.3 129.341 181.78 127.872C182.259 126.404 182.888 126.314 182.649 125.086C182.409 123.857 181.66 123.947 180.821 123.258C180.821 123.258 181.12 123.467 181.061 123.258C181.043 123.018 181.043 122.778 181.061 122.539C180.785 121.963 180.334 121.491 179.772 121.19C178.695 120.554 177.457 120.242 176.206 120.291C175.667 120.291 174.678 120.471 174.738 120.052C174.798 119.632 175.757 118.853 175.936 118.403C176.118 117.968 176.208 117.5 176.201 117.029C176.194 116.558 176.09 116.093 175.896 115.663C175.702 115.233 175.422 114.848 175.074 114.531C174.725 114.213 174.315 113.971 173.869 113.819C173.314 113.582 172.729 113.421 172.131 113.339C172.701 112.902 173.094 112.275 173.24 111.571C173.572 111.858 173.934 112.109 174.318 112.321C175.371 112.869 176.572 113.063 177.743 112.874C178.915 112.685 179.994 112.123 180.821 111.272C181.134 110.918 181.353 110.491 181.458 110.03C181.562 109.569 181.549 109.089 181.42 108.635C181.42 108.036 181.12 108.215 181.42 108.036C181.72 107.856 182.529 107.766 182.948 107.646C184.806 107.137 186.724 106.178 186.964 104.02C187.033 103.576 187.002 103.122 186.873 102.691C186.743 102.261 186.518 101.865 186.215 101.533C185.495 100.814 184.447 100.844 183.637 100.335C182.319 99.5256 183.637 98.9862 183.637 97.7876C183.609 97.2904 183.457 96.8081 183.196 96.3843C182.934 95.9606 182.571 95.6086 182.139 95.3604C179.983 94.6068 177.661 94.4617 175.427 94.941C174.858 94.941 173.959 94.941 173.779 94.3716C173.599 93.8023 174.229 93.5626 174.558 93.1731C174.883 92.8203 175.131 92.4035 175.286 91.9494C175.441 91.4954 175.499 91.014 175.457 90.5361C175.038 88.0491 172.64 87.5396 170.513 87.9591C169.989 88.0878 169.459 88.1879 168.925 88.2588C168.146 88.2588 167.996 87.9292 167.427 87.4498C167.051 87.1009 166.592 86.8543 166.093 86.7336C165.595 86.613 165.074 86.6222 164.58 86.7605C163.441 87.0003 162.452 87.7494 161.284 87.9891C160.115 88.2288 157.478 88.2887 158.078 86.5508C158.527 85.2922 161.074 85.3222 162.033 85.1724C163.758 85.0231 165.432 84.5127 166.947 83.6742C167.721 83.2236 168.342 82.5523 168.732 81.7461C169.122 80.94 169.262 80.0357 169.135 79.1494C168.655 77.1418 166.138 77.3815 164.55 77.3815C162.962 77.3815 163.501 76.9321 162.572 75.9433C162.26 75.5935 161.856 75.3379 161.406 75.2056C160.956 75.0732 160.477 75.0693 160.025 75.1941C159.067 75.3784 158.17 75.8008 157.418 76.4226C157.029 76.6923 156.669 77.022 156.28 77.3216C155.89 77.6213 155.77 77.8909 155.62 77.1118C155.471 76.3328 155.62 75.4638 154.572 74.8046C153.485 74.2383 152.251 74.0186 151.036 74.1753C148.736 74.5414 146.597 75.5846 144.893 77.1717C144.152 77.9009 143.263 78.463 142.286 78.8199C140.548 79.1794 136.593 74.1753 136.473 73.1565C136.369 70.9401 136.944 68.745 138.121 66.8639C141.47 60.9138 145.204 55.1883 149.298 49.724C153.253 44.0606 157.119 38.2774 160.594 32.2845C162.243 29.4378 163.831 26.5312 165.689 23.8344C167.513 21.2421 169.194 18.5511 170.723 15.7738C171.292 14.755 169.734 14.8449 169.314 15.594C165.749 22.1863 160.834 27.8197 156.969 34.2022C153.103 40.5847 148.878 46.6376 144.623 52.7205C142.586 55.7169 140.548 58.5637 138.63 61.71C136.935 64.1472 135.546 66.784 134.495 69.5607Z" fill="#88A956"/>
<path d="M100.455 141.956C100.764 145.334 102.389 148.456 104.98 150.645C106.379 152.118 108.047 153.308 109.894 154.151C110.887 154.467 111.935 154.566 112.969 154.442C114.003 154.318 114.998 153.974 115.887 153.432C116.157 153.432 116.427 152.713 115.887 152.743C114.084 152.79 112.293 152.429 110.648 151.687C109.003 150.945 107.547 149.841 106.389 148.458C105.291 147.472 104.406 146.273 103.788 144.933C103.169 143.594 102.831 142.142 102.793 140.667C102.868 139.233 103.161 137.818 103.662 136.472C104.231 135.543 104.681 134.554 105.16 133.476C105.849 132.037 106.658 130.719 107.467 129.37C108.863 127.032 110.114 124.611 111.213 122.119C111.366 121.906 111.537 121.705 111.722 121.52C111.759 121.492 111.79 121.456 111.811 121.414C111.831 121.372 111.842 121.326 111.842 121.28C111.842 121.233 111.831 121.188 111.811 121.146C111.79 121.104 111.759 121.068 111.722 121.04L112.112 120.141C113.37 117.145 114.389 114.148 115.947 111.152C116.876 109.414 118.554 107.616 118.584 105.548C118.584 104.979 117.715 105.249 117.655 105.548C117.446 107.796 115.228 109.743 114.179 111.691C112.501 114.688 110.524 117.684 108.876 120.681C107.228 123.677 105.879 126.943 103.991 130C102.299 133.815 101.11 137.834 100.455 141.956Z" fill="#88A956"/>
<path d="M64.4367 126.823C66.0464 128.684 67.4808 130.691 68.7217 132.816C69.321 133.984 69.8304 135.273 70.3697 136.501C70.9091 137.73 71.5084 139.108 72.0178 140.427C72.0178 140.696 72.5872 140.427 72.5273 140.217C72.1081 137.394 71.2485 134.654 69.9802 132.097C68.5645 129.972 66.8373 128.073 64.8563 126.463C64.7065 126.283 64.3169 126.643 64.4367 126.823Z" fill="#88A956"/>
<path d="M108.365 179.891C108.28 181.613 107.967 183.316 107.436 184.955C106.972 186.52 106.972 188.185 107.436 189.75C107.436 189.96 107.886 189.75 107.856 189.6C107.48 187.923 107.605 186.173 108.215 184.566C108.723 183.032 108.937 181.415 108.845 179.801C108.785 179.562 108.335 179.682 108.365 179.891Z" fill="#88A956"/>
<path d="M108.725 178.303C108.738 178.28 108.745 178.254 108.745 178.228C108.745 178.202 108.738 178.176 108.725 178.153V177.224V177.374V178.303Z" fill="#88A956"/>
<path d="M107.287 168.954C107.732 170.434 107.984 171.965 108.037 173.509C108.037 173.659 108.216 173.509 108.276 173.509C108.336 173.509 108.276 174.168 108.276 174.528C108.276 174.528 108.276 175.247 108.276 175.577V176.356C108.29 176.328 108.296 176.297 108.296 176.266C108.296 176.235 108.29 176.204 108.276 176.176V175.127C108.276 174.618 108.276 174.138 108.276 173.629L108.097 172.49C108.097 172.49 108.097 172.49 107.887 172.49C107.844 171.19 107.633 169.901 107.257 168.655C107.587 168.595 107.287 168.805 107.287 168.954Z" fill="#88A956"/>
<path d="M79.6593 192.836C80.0788 197.6 80.5581 202.335 80.8877 207.129C81.1874 211.294 81.487 215.519 81.9364 219.714C81.2943 220.613 80.7138 221.554 80.1986 222.531C79.886 223.046 79.644 223.6 79.4793 224.179C79.3242 224.714 79.2734 225.273 79.3295 225.827C79.3295 226.157 79.7191 226.007 79.779 225.827C79.9276 225.356 80.1078 224.896 80.3184 224.449C80.4993 223.947 80.7301 223.465 81.0075 223.01C81.3371 222.411 81.6969 221.842 82.0864 221.272C82.0864 221.452 82.0864 221.632 82.0864 221.812C82.4068 225.917 83.0784 229.987 84.094 233.978C84.5977 235.744 85.4092 237.407 86.4911 238.892C87.9443 240.544 89.2667 242.308 90.4465 244.166C90.4465 244.375 90.866 244.166 90.8061 243.956C89.4577 240.33 86.4612 237.753 85.3525 234.008C85.063 233.023 84.8329 232.023 84.6633 231.011L85.6222 231.4C86.7033 231.748 87.8183 231.979 88.9483 232.09C91.3349 232.146 93.6749 232.762 95.7802 233.888C95.9899 233.888 96.2897 233.648 96.1099 233.468C94.3164 232.097 92.1593 231.285 89.9072 231.131C88.8121 231.001 87.7296 230.78 86.6709 230.472C86.1687 230.318 85.6861 230.107 85.2327 229.842C84.963 229.663 84.6932 229.393 84.3936 229.213C84.004 226.217 83.8543 223.4 83.5546 220.583C83.255 217.767 82.9852 214.59 82.7155 211.833C84.1676 213.053 85.8792 213.924 87.7196 214.38C90.3682 214.932 93.0514 215.303 95.7504 215.489C95.9901 215.489 96.1998 215.04 95.9001 214.95C93.473 214.38 91.0159 213.991 88.6187 213.272C87.4128 212.943 86.2544 212.46 85.1727 211.833C84.1221 211.102 83.2006 210.201 82.446 209.167C82.446 208.388 82.2961 207.608 82.2362 206.799C81.7268 202.125 80.7379 197.51 80.1386 192.836C80.3184 192.206 79.6293 192.566 79.6593 192.836Z" fill="#88A956"/>
</g>
</svg>
